<?xml version="1.0" encoding="UTF-8"?>
<svg version="1.1" xmlns="http://www.w3.org/2000/svg" width="1337" height="412">
<path d="M0 0 C441.21 0 882.42 0 1337 0 C1337 135.96 1337 271.92 1337 412 C895.79 412 454.58 412 0 412 C0 276.04 0 140.08 0 0 Z " fill="#FDFDFD" transform="translate(0,0)"/>
<path d="M0 0 C22.77 0 45.54 0 69 0 C73.29 6.27 77.58 12.54 82 19 C86.02725874 24.85357411 86.02725874 24.85357411 90.0546875 30.70703125 C94.20461249 36.74836988 98.32628586 42.80900503 102.45263672 48.86645508 C106.12301452 54.25269022 109.80293182 59.63205448 113.5 65 C123.90992331 80.12616073 134.25939628 95.28860618 144.36987305 110.6171875 C148.10348398 116.25282665 151.97637452 121.75233962 155.9753418 127.20239258 C159.49022993 132.05915166 162.83205451 137.03238 166.1875 142 C167.30579808 143.65000422 168.42409877 145.30000672 169.54275513 146.94976807 C170.65699737 148.59319302 171.77064036 150.23702422 172.88427734 151.88085938 C175.91206866 156.34463296 178.95368018 160.79885755 182 165.25 C182.47848389 165.94996094 182.95696777 166.64992187 183.44995117 167.37109375 C187.94076441 173.93228191 192.47406344 180.46253608 197 187 C197.495 94.435 197.495 94.435 198 0 C215.49 0 232.98 0 251 0 C251 86.46 251 172.92 251 262 C227.9 262 204.8 262 181 262 C177.7 257.05 174.4 252.1 171 247 C168.90276918 243.91139526 166.80211758 240.82654063 164.6875 237.75 C163.57939455 236.13413689 162.47132263 234.51825079 161.36328125 232.90234375 C160.80850098 232.09394043 160.2537207 231.28553711 159.68212891 230.45263672 C157.45735482 227.20879339 155.23734374 223.96170455 153.01733398 220.71459961 C148.56261681 214.1990708 144.10062615 207.68868278 139.625 201.1875 C132.05881156 190.19388098 124.55616941 179.15681158 117.04296875 168.12695312 C110.39490258 158.36801832 103.74320829 148.61191193 97.04833984 138.88500977 C87.70749348 125.31282518 78.42469742 111.70130437 69.17529297 98.06665039 C64.15945986 90.68012295 59.08280503 83.34182949 54 76 C53.67 137.71 53.34 199.42 53 263 C35.51 263 18.02 263 0 263 C0 176.21 0 89.42 0 0 Z " fill="#343E96" transform="translate(323,43)"/>
<path d="M0 0 C26.4 0 52.8 0 80 0 C91.47634781 29.83850431 91.47634781 29.83850431 95.62109375 40.86328125 C96.09602642 42.12431624 96.57105093 43.38531665 97.04615784 44.64628601 C98.26733938 47.88796594 99.48753091 51.13001741 100.70739746 54.37219238 C102.88575054 60.16134506 105.06589939 65.94982181 107.24609375 71.73828125 C107.48431036 72.3708465 107.72252697 73.00341175 107.96796227 73.65514565 C112.00390207 84.37125506 116.0599073 95.07965237 120.12380981 105.78518677 C123.7053011 115.22007545 127.2739697 124.659741 130.83673096 134.10171509 C137.20383869 150.97453067 143.5927411 167.83898416 149.99409008 184.69883728 C153.90650313 195.00410628 157.81252608 205.31179816 161.71850586 215.61950684 C162.95789931 218.88894129 164.19851435 222.15790963 165.43945312 225.42675781 C167.26071833 230.22546967 169.07705293 235.02601617 170.88909912 239.82821655 C171.54055758 241.55236532 172.19372521 243.27586936 172.84869385 244.99868774 C173.7344672 247.32944705 174.61415038 249.66241129 175.4921875 251.99609375 C175.75038269 252.67125031 176.00857788 253.34640686 176.27459717 254.04202271 C177.32716036 256.85753024 178 258.96423403 178 262 C158.2 262 138.4 262 118 262 C111.76943635 246.42359088 105.82665193 230.7319602 100 215 C60.73 214.67 21.46 214.34 -19 214 C-19.99 217.3 -20.98 220.6 -22 224 C-23.09328435 227.10926852 -24.20404987 230.20190853 -25.35546875 233.2890625 C-25.62766235 234.02600342 -25.89985596 234.76294434 -26.18029785 235.5222168 C-27.17936008 238.2243812 -28.18372297 240.92458346 -29.1875 243.625 C-32.5596875 252.720625 -32.5596875 252.720625 -36 262 C-55.8 262 -75.6 262 -96 262 C-95.22696087 257.36176519 -94.35195445 253.84495169 -92.7421875 249.51953125 C-92.51604767 248.90720139 -92.28990784 248.29487152 -92.05691528 247.66398621 C-91.33460017 245.7115965 -90.6050097 243.76202392 -89.875 241.8125 C-89.40835898 240.55552226 -88.94220997 239.29836176 -88.4765625 238.04101562 C-87.50781267 235.42716473 -86.53606288 232.8144544 -85.5625 230.20239258 C-83.9022295 225.74343858 -82.25947793 221.27810095 -80.6171875 216.8125 C-77.19101134 207.50153207 -73.72960502 198.20385804 -70.26385498 188.90756226 C-64.39185198 173.15361909 -58.55720649 157.38707002 -52.78125 141.59765625 C-44.95190506 120.1957298 -37.09362287 98.8037012 -29.0625 77.4765625 C-28.73958984 76.61893311 -28.41667969 75.76130371 -28.08398438 74.87768555 C-27.28396926 72.75386164 -26.48305283 70.63037719 -25.68164062 68.50708008 C-22.86018744 61.01858721 -20.08222069 53.51534466 -17.34375 45.99609375 C-17.02994385 45.1347583 -16.7161377 44.27342285 -16.39282227 43.38598633 C-15.10432425 39.84778191 -13.81644467 36.30935853 -12.53173828 32.76977539 C-11.57539831 30.13609154 -10.61602016 27.5035292 -9.65625 24.87109375 C-9.23877502 23.71727455 -9.23877502 23.71727455 -8.81286621 22.54014587 C-6.04099659 14.94989863 -3.00643936 7.51609839 0 0 Z " fill="#343E96" transform="translate(683,43)"/>
<path d="M0 0 C70.29 0 140.58 0 213 0 C213 13.86 213 27.72 213 42 C161.85 42 110.7 42 58 42 C58 64.44 58 86.88 58 110 C109.15 110 160.3 110 213 110 C213 123.86 213 137.72 213 152 C161.85 152 110.7 152 58 152 C58 174.44 58 196.88 58 220 C109.15 220 160.3 220 213 220 C213 233.86 213 247.72 213 262 C142.71 262 72.42 262 0 262 C0 175.54 0 89.08 0 0 Z " fill="#353E96" transform="translate(1067,43)"/>
<path d="M0 0 C20.13 0 40.26 0 61 0 C65.09441868 10.52850518 69.18091926 21.05104927 73.15234375 31.625 C73.85272835 33.48561627 74.5531145 35.34623195 75.2535677 37.2068224 C75.98329523 39.14560217 76.71259082 41.08454391 77.44177246 43.02352905 C80.00382312 49.83580032 82.5700876 56.64648468 85.13671875 63.45703125 C85.39175297 64.13381235 85.64678719 64.81059345 85.90954971 65.50788307 C90.33246798 77.24354704 94.7788615 88.97011876 99.25 100.6875 C99.56028137 101.50068695 99.87056274 102.3138739 100.19024658 103.15170288 C101.45279261 106.4602875 102.71544141 109.76883285 103.97833252 113.07728577 C108.26800176 124.31793786 112.53955758 135.56548155 116.8125 146.8125 C117.21663116 147.87614777 117.62076233 148.93979553 118.03713989 150.03567505 C124.3640947 166.68817403 130.68647903 183.3424028 137 200 C138.76792469 197.34811296 139.76571678 195.23309355 140.86010742 192.27929688 C141.3965815 190.84003845 141.3965815 190.84003845 141.94389343 189.3717041 C142.32721329 188.33122925 142.71053314 187.29075439 143.10546875 186.21875 C143.50776199 185.13605835 143.91005524 184.0533667 144.32453918 182.93786621 C145.61582682 179.45991293 146.90171026 175.97998909 148.1875 172.5 C149.03415513 170.21731804 149.88115668 167.93476454 150.72851562 165.65234375 C154.64540155 155.0955519 158.54461138 144.53224448 162.43431091 133.96540833 C164.6228083 128.02055802 166.81810154 122.07823806 169.015625 116.13671875 C169.35756897 115.21211853 169.69951294 114.28751831 170.05181885 113.3348999 C170.75539135 111.43251167 171.45897427 109.53012728 172.16256714 107.62774658 C177.2761547 93.80141406 182.38311399 79.97309833 187.4375 66.125 C193.21232077 50.31260776 199.14776401 34.56009466 205.07202148 18.80322266 C205.45618729 17.78102127 205.84035309 16.75881989 206.23616028 15.7056427 C206.96461887 13.76768715 207.69358994 11.82992413 208.42314148 9.89237976 C208.74837296 9.02724258 209.07360443 8.16210541 209.40869141 7.27075195 C209.69306061 6.51518509 209.97742981 5.75961823 210.27041626 4.9811554 C210.87780701 3.33181016 211.44418859 1.66743423 212 0 C232.13 0 252.26 0 273 0 C265.10259909 22.5640026 265.10259909 22.5640026 262 30.5 C259.40167633 37.23273552 256.91661973 43.99059343 254.5625 50.8125 C251.66635462 59.19981043 248.59874752 67.51457932 245.45922852 75.8137207 C242.60518883 83.35942312 239.81072368 90.92607038 237.02539062 98.49731445 C233.4650818 108.17421878 229.88891602 117.84526994 226.31152344 127.51586914 C225.43659203 129.88186477 224.56224379 132.24807614 223.68847656 134.61450195 C215.3774823 157.12163171 215.3774823 157.12163171 211.3125 167.43359375 C208.63528736 174.23194534 206.18938106 181.09288221 203.80361938 187.99830627 C199.86065073 199.3636084 195.59654197 210.61097914 191.375 221.875 C189.71482342 226.30940216 188.05613327 230.7443574 186.3984375 235.1796875 C186.00767029 236.22396912 185.61690308 237.26825073 185.21429443 238.34417725 C182.68741901 245.1115812 180.22808487 251.89796808 177.86181641 258.72314453 C177 261 177 261 176 262 C173.59651714 262.09496708 171.22189018 262.12558862 168.81811523 262.11352539 C167.6913588 262.11374443 167.6913588 262.11374443 166.5418396 262.1139679 C164.04739541 262.11326863 161.55302497 262.10547564 159.05859375 262.09765625 C157.33366436 262.09579212 155.60873443 262.09436819 153.88380432 262.09336853 C149.33487497 262.08954297 144.78597733 262.07971238 140.23706055 262.06866455 C135.59879994 262.05845124 130.96053423 262.05387108 126.32226562 262.04882812 C117.21482978 262.03809014 108.10741752 262.02101327 99 262 C87.48246276 231.90742382 76.00527488 201.80103245 64.66308594 171.6418457 C60.92450842 161.7068549 57.17123422 151.77965045 53.29312134 141.89811707 C51.44517213 137.18346082 49.6729929 132.44465068 47.9375 127.6875 C43.00171144 114.20870136 37.8840008 100.79820617 32.79548645 87.37652588 C30.7082122 81.87067658 28.62432803 76.36355659 26.54296875 70.85546875 C25.40371464 67.84111982 24.26437828 64.82680199 23.125 61.8125 C22.84475983 61.07102722 22.56451965 60.32955444 22.27578735 59.56561279 C18.72058964 50.16134441 15.14950264 40.76327945 11.5625 31.37109375 C11.19172333 30.39981033 10.82094666 29.42852692 10.43893433 28.42781067 C8.62043754 23.66435231 6.80022649 18.90156211 4.97705078 14.13989258 C4.32057198 12.42141195 3.6641559 10.70290735 3.0078125 8.984375 C2.70230469 8.18837387 2.39679687 7.39237274 2.08203125 6.57225037 C0 1.11349693 0 1.11349693 0 0 Z " fill="#353E96" transform="translate(782,43)"/>
<path d="M0 0 C64.68 0 129.36 0 196 0 C196 25.41 196 50.82 196 77 C179.83 77 163.66 77 147 77 C147 68.09 147 59.18 147 50 C115.32 50 83.64 50 51 50 C51 104.12 51 158.24 51 214 C82.68 214 114.36 214 147 214 C147 205.09 147 196.18 147 187 C163.17 187 179.34 187 196 187 C196 211.75 196 236.5 196 262 C131.32 262 66.64 262 0 262 C0 175.54 0 89.08 0 0 Z " fill="#343E95" transform="translate(50,43)"/>
<path d="M0 0 C0.33 0 0.66 0 1 0 C1 66.66 1 133.32 1 202 C-23.75 202 -48.5 202 -74 202 C-72.10294163 195.04411931 -70.20368947 188.44223608 -67.6640625 181.75 C-67.34848892 180.90619781 -67.03291534 180.06239563 -66.70777893 179.19302368 C-65.68467678 176.46030732 -64.65487436 173.73017043 -63.625 171 C-62.90484979 169.08010473 -62.18521141 167.16001739 -61.46606445 165.23974609 C-60.00905567 161.35019743 -58.54991114 157.46146024 -57.08935547 153.57324219 C-55.19458619 148.52464577 -53.3138265 143.47098559 -51.44140625 138.4140625 C-51.16637772 137.67133087 -50.89134918 136.92859924 -50.60798645 136.1633606 C-50.06663814 134.70111009 -49.52534183 133.23884034 -48.98410034 131.77655029 C-45.67328605 122.83432032 -42.35112615 113.89686341 -38.9609375 104.984375 C-38.71461075 104.33669159 -38.468284 103.68900818 -38.2144928 103.021698 C-37.07210046 100.02034699 -35.92642176 97.02030299 -34.77612305 94.02197266 C-32.50269893 88.07072708 -30.3125579 82.09809389 -28.20703125 76.0859375 C-24.82218075 66.42268738 -21.27876041 56.81946711 -17.72363281 47.21777344 C-16.63174167 44.2682115 -15.54229381 41.31775563 -14.453125 38.3671875 C-9.71509998 25.54740209 -4.891826 12.76187181 0 0 Z " fill="#837DBA" transform="translate(1050,103)"/>
<path d="M0 0 C24.42 0 48.84 0 74 0 C72.04484498 7.16890174 70.0437301 13.9933047 67.4453125 20.90625 C67.10776947 21.81600586 66.77022644 22.72576172 66.42245483 23.66308594 C65.32774506 26.61039831 64.22641469 29.5551875 63.125 32.5 C62.35306703 34.57470294 61.58158821 36.64957491 60.81054688 38.72460938 C58.89346981 43.88113457 56.97139765 49.03578094 55.04797363 54.18994141 C53.55702874 58.18779247 52.07084973 62.187405 50.5859375 66.1875 C50.19643166 67.23671631 50.19643166 67.23671631 49.79905701 68.30712891 C49.28621443 69.68863186 48.77339167 71.07014217 48.2605896 72.45166016 C47.49497153 74.51354214 46.72866585 76.57516732 45.9621582 78.63671875 C41.39627063 90.91856718 36.85319857 103.20882005 32.3125 115.5 C31.94483521 116.4952066 31.57717041 117.49041321 31.19836426 118.51577759 C29.7625769 122.40225753 28.3268106 126.28874526 26.89108276 130.17524719 C18.28873855 153.46056437 9.64653607 176.73106563 1 200 C0.67 200 0.34 200 0 200 C0 134 0 68 0 0 Z " fill="#837DBA" transform="translate(591,43)"/>
<path d="M0 0 C0.66 0 1.32 0 2 0 C11.69035441 25.12015909 11.69035441 25.12015909 14.9375 33.875 C17.68993624 41.26972187 20.59843417 48.60020155 23.5 55.9375 C26.76433553 64.20109688 29.96713838 72.46458137 32.85009766 80.86914062 C35.21045791 87.72124407 37.82907863 94.47284206 40.46166992 101.22436523 C40.79142822 102.07716064 41.12118652 102.92995605 41.4609375 103.80859375 C41.75790527 104.56970459 42.05487305 105.33081543 42.36083984 106.11499023 C43 108 43 108 43 110 C15.61 110 -11.78 110 -40 110 C-38.12753332 103.7584444 -36.23949209 97.6598891 -33.98828125 91.56640625 C-33.70292511 90.78695648 -33.41756897 90.00750671 -33.12356567 89.20443726 C-32.18954722 86.65601095 -31.25115942 84.10922018 -30.3125 81.5625 C-29.65162985 79.76315519 -28.99090678 77.96375634 -28.33032227 76.16430664 C-18.9872516 50.73912807 -9.5219466 25.35868009 0 0 Z " fill="#FCFDFD" transform="translate(722,100)"/>
<path d="M0 0 C1.70736328 0.02320313 1.70736328 0.02320313 3.44921875 0.046875 C6.3125 0.25 6.3125 0.25 8.3125 1.25 C8.9375 3.3125 8.9375 3.3125 9.3125 5.25 C10.055 4.425 10.7975 3.6 11.5625 2.75 C15.5621797 -0.65357359 19.67173116 -0.18614427 24.703125 -0.0234375 C27.3125 0.25 27.3125 0.25 29.3125 1.25 C29.3125 2.9 29.3125 4.55 29.3125 6.25 C28.55324219 6.15460938 27.79398438 6.05921875 27.01171875 5.9609375 C25.52091797 5.79464844 25.52091797 5.79464844 24 5.625 C22.52080078 5.45097656 22.52080078 5.45097656 21.01171875 5.2734375 C18.08592584 4.99523005 18.08592584 4.99523005 15.3125 7.25 C15.35418517 9.66226272 15.35418517 9.66226272 16.3125 12.25 C18.9544027 14.02256392 18.9544027 14.02256392 22.1875 15.3125 C29.15645399 18.34357517 29.15645399 18.34357517 31.3125 22.25 C31.39392163 26.72818949 30.76418103 28.69134188 27.9375 32.1875 C22.62463696 36.09213428 15.39016453 34.62522387 9.25 33.6875 C6.38661457 32.97373696 6.38661457 32.97373696 4.3125 34.25 C-0.91590334 34.77113171 -5.32786754 34.89273534 -10.125 32.625 C-15.16005018 27.95836813 -16.95480359 24.77621343 -17.25 17.875 C-17.06031859 11.94068147 -15.94612081 7.51913592 -11.6875 3.25 C-7.73584069 0.28283712 -4.8944326 -0.11161762 0 0 Z " fill="#F6F6F6" transform="translate(696.6875,337.75)"/>
<path d="M0 0 C2.33984375 1.52734375 2.33984375 1.52734375 4 3 C4.33 2.01 4.66 1.02 5 0 C6.65 0 8.3 0 10 0 C10.07440448 5.15947346 10.12872191 10.31863151 10.16479492 15.47851562 C10.17983995 17.23215173 10.20028104 18.98575047 10.22631836 20.73925781 C10.26289121 23.26637009 10.2797692 25.79298296 10.29296875 28.3203125 C10.30845261 29.09867462 10.32393646 29.87703674 10.33988953 30.6789856 C10.34157997 36.20193829 9.35653786 40.4163999 5.5 44.64453125 C-0.32273086 49.17837637 -4.83853924 49.47743072 -12 49 C-15.625 48 -15.625 48 -18 47 C-18 45.02 -18 43.04 -18 41 C-16.93265625 41.48146484 -16.93265625 41.48146484 -15.84375 41.97265625 C-11.25931948 43.62884475 -6.8044236 43.72859877 -2 43 C0.89683868 40.7984026 2.39297231 39.21405538 4 36 C4.039992 34.00039988 4.04346799 31.99952758 4 30 C3.401875 30.474375 2.80375 30.94875 2.1875 31.4375 C-2.13443948 34.52459963 -6.86509123 34.78863787 -12 34 C-15.83649373 31.97653284 -18.47238024 29.05061168 -20 25 C-20.3359375 21.5390625 -20.3359375 21.5390625 -20.375 17.625 C-20.40335938 16.33851563 -20.43171875 15.05203125 -20.4609375 13.7265625 C-19.80845646 8.45141921 -17.34209701 5.54544504 -13.9375 1.625 C-9.50988057 -0.82432139 -4.9540918 -0.81952934 0 0 Z " fill="#0B0B0B" transform="translate(1070,338)"/>
<path d="M0 0 C2.33984375 1.52734375 2.33984375 1.52734375 4 3 C4.33 2.01 4.66 1.02 5 0 C6.65 0 8.3 0 10 0 C10.07449853 5.1411629 10.12876593 10.28200729 10.16479492 15.42358398 C10.17982429 17.1703845 10.20025354 18.91714765 10.22631836 20.66381836 C10.2629608 23.18352515 10.27978492 25.70273039 10.29296875 28.22265625 C10.30845261 28.99585709 10.32393646 29.76905792 10.33988953 30.56568909 C10.3414863 35.78204893 9.4856203 39.3839519 7 44 C2.26191345 47.75098519 -1.39679659 49.1465534 -7.375 49.1875 C-8.31085938 49.20167969 -9.24671875 49.21585937 -10.2109375 49.23046875 C-13.16118154 48.98668108 -15.32364112 48.23112508 -18 47 C-18 45.02 -18 43.04 -18 41 C-17.28972656 41.32484375 -16.57945313 41.6496875 -15.84765625 41.984375 C-12.84587706 43.0549684 -10.61024291 43.26765086 -7.4375 43.25 C-6.04337891 43.25773437 -6.04337891 43.25773437 -4.62109375 43.265625 C-1.91250909 42.99113356 -0.29254115 42.43734603 2 41 C4.54251421 37.56760581 4.15913541 34.13752054 4 30 C3.566875 30.474375 3.13375 30.94875 2.6875 31.4375 C-0.65145515 34.52912514 -4.48278864 34.27764595 -8.78125 34.21484375 C-11.89004101 33.91381645 -13.6318186 33.01991943 -16 31 C-20.20707041 25.14015193 -20.76242722 19.05245176 -20 12 C-18.70639934 7.88016313 -16.67037889 4.81258047 -13.9375 1.5 C-9.47911231 -0.7766235 -4.90909987 -0.81208657 0 0 Z " fill="#0C0C0C" transform="translate(1269,338)"/>
<path d="M0 0 C1.98 0 3.96 0 6 0 C6.33 6.6 6.66 13.2 7 20 C8.32 18.68 9.64 17.36 11 16 C16.12567995 14.94699022 20.74807763 15.44110608 25.5 17.5625 C30.08745944 22.03527295 31.16951629 26.15668807 31.5 32.375 C31.33105549 38.21565293 29.55878905 42.40323081 26 47 C22.24569736 50.53977106 18.33468056 50.35283808 13.40234375 50.3984375 C10.5551975 49.92622788 9.15060312 48.87743182 7 47 C6.67 47.66 6.34 48.32 6 49 C4.02 49 2.04 49 0 49 C0 32.83 0 16.66 0 0 Z " fill="#171717" transform="translate(796,322)"/>
<path d="M0 0 C1.65 0 3.3 0 5 0 C5 16.5 5 33 5 50 C3.35 50 1.7 50 0 50 C-0.33 48.68 -0.66 47.36 -1 46 C-1.433125 46.474375 -1.86625 46.94875 -2.3125 47.4375 C-5.65145515 50.52912514 -9.48278864 50.27764595 -13.78125 50.21484375 C-16.89004101 49.91381645 -18.6318186 49.01991943 -21 47 C-25.2113146 41.13424038 -25.75240946 35.05781272 -25 28 C-23.6757297 23.5655863 -21.7180824 20.683888 -18.375 17.5 C-13.92101114 15.5204494 -9.80829955 15.11927187 -5 16 C-3.68 16.99 -2.36 17.98 -1 19 C-0.67 12.73 -0.34 6.46 0 0 Z " fill="#0D0D0D" transform="translate(310,322)"/>
<path d="M0 0 C4.88196776 2.05556537 7.20598236 4.98734255 9.3046875 9.72265625 C10.98497975 15.22608538 11.01620324 20.72141057 8.3125 25.875 C5.33606419 29.89721055 2.7707186 32.40976047 -2 34 C-6.52900064 34.39916616 -10.63712416 34.56292698 -14.875 32.8125 C-19.36420008 28.9834764 -22.58979607 24.87894591 -23.22265625 18.89453125 C-23.45311224 12.91269544 -22.39325576 9.12632509 -18.69921875 4.30078125 C-13.44475507 -1.29268009 -7.25199988 -1.06537112 0 0 Z " fill="#0F0F0F" transform="translate(584,338)"/>
<path d="M0 0 C5.15878163 2.31255728 6.84061358 4.89046593 9 10 C9.98903978 16.60893247 10.30788511 23.12762816 6.3125 28.75 C3.27654592 32.35862759 -0.01365685 33.72167758 -4.6484375 34.37109375 C-10.30186563 34.50878469 -14.25205925 34.25391274 -18.62890625 30.46484375 C-23.24202829 25.53629457 -23.58774109 20.48840852 -23.41796875 13.98046875 C-22.79327408 9.52587032 -21.1388227 6.21632449 -18 3 C-12.4204648 -1.14151066 -6.68389071 -0.74825946 0 0 Z " fill="#F6F6F6" transform="translate(104,338)"/>
<path d="M0 0 C3.13578591 2.35183943 5.28124643 4.13657613 6.5 7.875 C7.21718006 13.9783487 7.74749943 20.49571535 4.75 26.0625 C1.86908555 29.66364307 -0.13981485 31.42160495 -4.5 32.875 C-9.79487804 33.38204484 -14.15500981 33.52347741 -19 31.1875 C-23.90100599 26.65406946 -25.31728807 22.61567899 -25.75 16.125 C-25.64260093 10.88197286 -24.55835014 6.36066845 -21.1640625 2.26171875 C-15.1993137 -2.90288082 -7.14004703 -2.29501512 0 0 Z " fill="#F8F8F8" transform="translate(929.5,339.125)"/>
<path d="M0 0 C3.63040556 3.1903564 6.88001757 6.46830257 7.265625 11.421875 C7.42671258 22.21474281 7.42671258 22.21474281 4.0625 26.8125 C-0.15510077 31.03010077 -3.76818557 32.95041555 -9.75 33.125 C-14.58513019 33.07566194 -17.22978734 32.06805258 -20.9375 28.8125 C-25.44730918 23.68064817 -25.27388885 18.56801086 -25.22265625 11.98828125 C-24.74822523 6.70454944 -22.8312011 4.47666157 -18.875 1 C-13.43430505 -2.33461948 -5.81900873 -2.35236523 0 0 Z " fill="#F6F6F6" transform="translate(406.9375,339.1875)"/>
<path d="M0 0 C0 2.97 0 5.94 0 9 C5.28 9 10.56 9 16 9 C16 19.89 16 30.78 16 42 C14.02 42 12.04 42 10 42 C9.67 42.33 9.34 42.66 9 43 C7.109375 43.2734375 7.109375 43.2734375 4.75 43.375 C3.98171875 43.42398438 3.2134375 43.47296875 2.421875 43.5234375 C-1.51631593 42.6722801 -2.7199925 41.32985278 -5 38 C-5.61029313 33.87844167 -5.4703353 29.84221067 -5.3125 25.6875 C-5.27866211 24.00430664 -5.27866211 24.00430664 -5.24414062 22.28710938 C-5.18533776 19.52337464 -5.10320401 16.76237446 -5 14 C-6.98 14 -8.96 14 -11 14 C-11 12.35 -11 10.7 -11 9 C-9.02 9 -7.04 9 -5 9 C-5 6.36 -5 3.72 -5 1 C-3 0 -3 0 0 0 Z " fill="#F3F3F3" transform="translate(660,329)"/>
<path d="M0 0 C1.98 0 3.96 0 6 0 C7.94399199 4.94185852 9.88265621 9.88576323 11.81665039 14.83154297 C12.47375831 16.5098343 13.13225777 18.18758155 13.79223633 19.86474609 C17.18756271 28.49571202 20.54647208 37.04325496 23 46 C21.02 46 19.04 46 17 46 C16.32694982 44.39850114 15.66177773 42.79368971 15 41.1875 C14.62875 40.29417969 14.2575 39.40085937 13.875 38.48046875 C13 36 13 36 13 33 C3.1 33.495 3.1 33.495 -7 34 C-8.32 37.96 -9.64 41.92 -11 46 C-12.98 46 -14.96 46 -17 46 C-14.68182086 37.39038428 -11.48214542 29.13540044 -8.27441406 20.82910156 C-7.36674341 18.47861893 -6.46418877 16.12622063 -5.5625 13.7734375 C-4.98726926 12.2759302 -4.41175879 10.77853032 -3.8359375 9.28125 C-3.56615082 8.57923462 -3.29636414 7.87721924 -3.0184021 7.15393066 C-1.11794246 2.23588493 -1.11794246 2.23588493 0 0 Z " fill="#3E4592" transform="translate(513,325)"/>
<path d="M0 0 C7 0 7 0 8.79296875 1.51953125 C9.25316406 2.27621094 9.71335937 3.03289062 10.1875 3.8125 C10.75597656 4.71355469 11.32445312 5.61460937 11.91015625 6.54296875 C12.3899292 7.34033447 12.3899292 7.34033447 12.87939453 8.15380859 C14.19904428 10.32792437 15.56440083 12.47002633 16.93359375 14.61328125 C19.98165089 19.39279574 22.9961916 24.19258868 26 29 C27.65 31.64 29.3 34.28 31 37 C31.33 24.79 31.66 12.58 32 0 C33.65 0 35.3 0 37 0 C37 15.18 37 30.36 37 46 C30 46 30 46 27.97119141 44.11083984 C27.1694751 42.79913818 27.1694751 42.79913818 26.3515625 41.4609375 C25.73796875 40.48640625 25.124375 39.511875 24.4921875 38.5078125 C23.87601562 37.47398437 23.25984375 36.44015625 22.625 35.375 C22.0165625 34.3953125 21.408125 33.415625 20.78125 32.40625 C18.84020291 29.27945867 16.92047925 26.13946608 15 23 C12.03 18.38 9.06 13.76 6 9 C5.67 21.21 5.34 33.42 5 46 C3.35 46 1.7 46 0 46 C0 30.82 0 15.64 0 0 Z " fill="#404692" transform="translate(340,325)"/>
<path d="M0 0 C3.5017277 1.62389281 5.4029818 3.99592394 7.375 7.3125 C8 10 8 10 8 18 C0.41 18 -7.18 18 -15 18 C-14.01 20.97 -13.02 23.94 -12 27 C-7.07049569 29.46475215 -4.25626455 29.01945345 1 28 C3.91509282 27.05523446 3.91509282 27.05523446 6 26 C6.3125 28.3125 6.3125 28.3125 6 31 C1.26281544 34.64667246 -3.03722092 34.61545083 -8.82421875 34.484375 C-12.84471944 33.8711621 -14.87018951 32.60313078 -17.73046875 29.80078125 C-21.76710446 24.07496875 -21.86664657 17.75809243 -21 11 C-16.99333342 0.97535213 -10.36915464 -1.48328816 0 0 Z " fill="#121212" transform="translate(471,338)"/>
<path d="M0 0 C1.12148438 -0.02835937 2.24296875 -0.05671875 3.3984375 -0.0859375 C7.25996496 0.46570928 8.86627551 1.67646586 11.625 4.375 C13.03412096 7.19324192 12.73683553 9.54751282 12.72265625 12.6953125 C12.71943359 13.95214844 12.71621094 15.20898438 12.71289062 16.50390625 C12.70451172 17.82261719 12.69613281 19.14132812 12.6875 20.5 C12.68248489 21.83984211 12.67792201 23.179686 12.67382812 24.51953125 C12.66201086 27.80473206 12.64553617 31.08984397 12.625 34.375 C10.975 34.375 9.325 34.375 7.625 34.375 C7.295 33.055 6.965 31.735 6.625 30.375 C6.17125 31.035 5.7175 31.695 5.25 32.375 C1.76910366 35.02711149 -0.67791446 34.93768322 -4.9609375 34.7734375 C-8.32711196 34.21785531 -10.10140291 32.86862262 -12.375 30.375 C-13.94955739 27.22588521 -13.72299118 24.85491184 -13.375 21.375 C-10.99179499 17.54742832 -9.31968376 15.7565069 -5.125 14.0625 C-0.88422355 13.28502432 3.33098552 12.74500578 7.625 12.375 C7.02316251 10.35454558 6.35193904 8.35388961 5.625 6.375 C1.60251725 4.36375862 -2.63233112 5.15895087 -6.8125 6.375 C-8.0809375 6.87 -8.0809375 6.87 -9.375 7.375 C-9.5625 5 -9.5625 5 -9.375 2.375 C-5.85460293 0.02806862 -4.17442991 0.04776236 0 0 Z " fill="#0B0B0B" transform="translate(859.375,337.625)"/>
<path d="M0 0 C4.1199045 2.08447549 5.93557629 4.87115258 8 9 C8 11.97 8 14.94 8 18 C0.41 18 -7.18 18 -15 18 C-12.78219042 25.3430518 -12.78219042 25.3430518 -10.25 28 C-6.4500976 29.68884551 -2.93136037 29.65380682 1.0078125 28.3203125 C2.69657941 27.60241564 4.35203424 26.8071669 6 26 C6.3125 28.3125 6.3125 28.3125 6 31 C0.73184782 35.02295257 -4.64252657 34.77530164 -11 34 C-15.53861925 31.85012772 -17.85253931 29.52096988 -20 25 C-21.61124686 19.56908399 -21.73077645 14.19232936 -19.9375 8.8125 C-14.66711713 1.16194422 -9.49651759 -1.93076788 0 0 Z " fill="#101010" transform="translate(276,338)"/>
<path d="M0 0 C4.1199045 2.08447549 5.93557629 4.87115258 8 9 C8 11.97 8 14.94 8 18 C0.41 18 -7.18 18 -15 18 C-12.7276144 25.29121948 -12.7276144 25.29121948 -10.375 28.0625 C-5.63246194 29.9345545 -0.61432517 28.560072 4.0625 26.9375 C4.701875 26.628125 5.34125 26.31875 6 26 C6 27.65 6 29.3 6 31 C0.51589781 34.55725547 -4.66829788 34.81151473 -11 34 C-15.47449977 32.12884555 -17.28814807 29.91897138 -19.375 25.6875 C-21.80315816 19.46978955 -21.68162036 14.06069698 -19.08984375 7.93359375 C-14.77337109 0.2753358 -8.47390136 -1.72285645 0 0 Z " fill="#0F0F0F" transform="translate(1178,338)"/>
<path d="M0 0 C3.40233235 1.86232929 6.21338279 4.02893618 7.6796875 7.703125 C8.15398214 11.10416465 8 14.56604804 8 18 C0.41 18 -7.18 18 -15 18 C-12.12173199 26.63860517 -12.12173199 26.63860517 -8 29 C-2.39859188 29.53859693 1.0817389 28.40894421 6 26 C6 27.65 6 29.3 6 31 C0.53661381 34.54381807 -4.68632112 34.84558199 -11 34 C-15.46321544 31.84809256 -18.10289408 29.59299329 -20 25 C-21.53233605 18.22921282 -21.3825781 12.166158 -18 6 C-13.41828526 -0.312874 -7.49228946 -1.66983577 0 0 Z " fill="#090909" transform="translate(1148,338)"/>
<path d="M0 0 C3.48313228 1.67936735 5.32458734 2.92547986 7.375 6.1875 C8 9 8 9 8 18 C0.41 18 -7.18 18 -15 18 C-12.1654633 26.9470244 -12.1654633 26.9470244 -7 29 C-4.76470257 29.10270532 -4.76470257 29.10270532 -2.5 28.75 C-1.7471875 28.66234375 -0.994375 28.5746875 -0.21875 28.484375 C2.1101584 27.97595134 3.92229716 27.15218067 6 26 C6 27.98 6 29.96 6 32 C0.37184091 34.55637995 -4.90578404 34.91896907 -11 34 C-15.06843467 31.96578267 -17.3156391 29.27945733 -19.4375 25.3125 C-20.56315476 18.68364421 -21.33471573 12.50327335 -17.8125 6.5 C-13.02545135 0.01088961 -7.82359868 -1.12659821 0 0 Z " fill="#0C0C0C" transform="translate(200,338)"/>
<path d="M0 0 C2.625 0.375 2.625 0.375 5 1 C5 2.65 5 4.3 5 6 C2.625 6.625 2.625 6.625 0 7 C-0.66 6.34 -1.32 5.68 -2 5 C-5.92022671 14.11678134 -9.38660427 23.35638904 -12.75 32.6875 C-13.72077995 35.38007045 -14.69519285 38.07128446 -15.671875 40.76171875 C-16.0956543 41.93694092 -16.51943359 43.11216309 -16.95605469 44.32299805 C-18 47 -18 47 -19 48 C-20.99958364 48.04080783 -23.00045254 48.04254356 -25 48 C-29.25141878 38.24233316 -32.81031511 28.29432127 -36.3125 18.25 C-36.86751728 16.66655402 -37.42285377 15.0832199 -37.97851562 13.5 C-39.3226851 9.66794308 -40.66255651 5.83440929 -42 2 C-40.02 2 -38.04 2 -36 2 C-32.32186025 9.82893766 -29.52603602 17.87669373 -26.75 26.0625 C-25.1825 30.661875 -23.615 35.26125 -22 40 C-17.38 27.46 -12.76 14.92 -8 2 C-6.02 2 -4.04 2 -2 2 C-1.34 1.34 -0.68 0.68 0 0 Z " fill="#3D4592" transform="translate(786,323)"/>
<path d="M0 0 C7.59 0 15.18 0 23 0 C23 1.65 23 3.3 23 5 C17.06 5 11.12 5 5 5 C5 9.95 5 14.9 5 20 C10.28 20 15.56 20 21 20 C21 21.65 21 23.3 21 25 C15.72 25 10.44 25 5 25 C5 30.61 5 36.22 5 42 C11.27 42 17.54 42 24 42 C24 43.32 24 44.64 24 46 C16.08 46 8.16 46 0 46 C0 30.82 0 15.64 0 0 Z " fill="#383F88" transform="translate(992,325)"/>
<path d="M0 0 C2.72482788 2.16940733 4.20198154 3.57860086 5.31640625 6.921875 C5.39932578 8.9139053 5.42378802 10.90861213 5.4140625 12.90234375 C5.41083984 14.06572266 5.40761719 15.22910156 5.40429688 16.42773438 C5.39591797 17.64267578 5.38753906 18.85761719 5.37890625 20.109375 C5.37439453 21.33591797 5.36988281 22.56246094 5.36523438 23.82617188 C5.3534369 26.85812168 5.33697546 29.88997406 5.31640625 32.921875 C3.6502872 32.964596 1.9825774 32.96251332 0.31640625 32.921875 C-1.4148822 31.19058655 -0.85404122 28.81938895 -0.89453125 26.4609375 C-0.92289063 25.34976562 -0.95125 24.23859375 -0.98046875 23.09375 C-1.03237657 20.737135 -1.07669961 18.38034022 -1.11328125 16.0234375 C-1.14421875 14.9096875 -1.17515625 13.7959375 -1.20703125 12.6484375 C-1.22685059 11.62314941 -1.24666992 10.59786133 -1.26708984 9.54150391 C-1.48466032 6.90994086 -1.48466032 6.90994086 -2.99853516 5.09130859 C-5.87626966 3.09415584 -8.31011691 3.50758837 -11.68359375 3.921875 C-14.44944666 6.02501126 -15.54658028 7.23190554 -16.22949219 10.67089844 C-16.25043945 11.69731445 -16.27138672 12.72373047 -16.29296875 13.78125 C-16.32519531 14.89628906 -16.35742188 16.01132812 -16.390625 17.16015625 C-16.40480469 18.31902344 -16.41898438 19.47789062 -16.43359375 20.671875 C-16.46324219 21.84621094 -16.49289062 23.02054687 -16.5234375 24.23046875 C-16.59410102 27.12767322 -16.64681641 30.02407455 -16.68359375 32.921875 C-18.66359375 32.921875 -20.64359375 32.921875 -22.68359375 32.921875 C-22.68359375 21.701875 -22.68359375 10.481875 -22.68359375 -1.078125 C-20.70359375 -1.078125 -18.72359375 -1.078125 -16.68359375 -1.078125 C-16.35359375 -0.088125 -16.02359375 0.901875 -15.68359375 1.921875 C-15.10609375 1.4475 -14.52859375 0.973125 -13.93359375 0.484375 C-9.49743959 -2.59628761 -4.73698213 -3.03342707 0 0 Z " fill="#1E1E1E" transform="translate(1041.68359375,339.078125)"/>
<path d="M0 0 C0.76699219 0.00515625 1.53398438 0.0103125 2.32421875 0.015625 C7.93913879 0.09456939 7.93913879 0.09456939 10.25 1.25 C10.25 3.23 10.25 5.21 10.25 7.25 C9.26 6.92 8.27 6.59 7.25 6.25 C0.5521133 4.39022462 -4.90997731 4.5143733 -10.98828125 7.9296875 C-15.30177917 11.16241986 -16.81765198 15.42713017 -17.625 20.625 C-18.04949221 26.69213257 -17.16386814 32.03493991 -13.875 37.1875 C-9.87704761 41.06786555 -6.84012902 41.50779355 -1.3125 41.4375 C0.35619141 41.42783203 0.35619141 41.42783203 2.05859375 41.41796875 C4.90100884 41.26836796 7.48401547 40.89625807 10.25 40.25 C10.25 41.9 10.25 43.55 10.25 45.25 C3.62409675 48.36954014 -4.15495759 48.3282068 -11.23046875 46.66796875 C-16.94170149 44.24870382 -19.90769026 39.59039512 -22.75 34.25 C-25.03607254 27.39178238 -24.78093186 18.66258578 -21.79296875 12.02734375 C-16.52329645 3.04719058 -10.30955731 -0.28293811 0 0 Z " fill="#3F4690" transform="translate(68.75,324.75)"/>
<path d="M0 0 C1.98 0 3.96 0 6 0 C6.33 0.99 6.66 1.98 7 3 C7.55816406 2.51402344 8.11632813 2.02804687 8.69140625 1.52734375 C12.56059814 -1.03247694 16.52089031 -0.64609524 21 0 C24.28696931 1.78044171 25.55599487 3.03876784 27.11328125 6.41015625 C28.38484887 11.55804454 28.24954673 16.53199669 28.1875 21.8125 C28.18685547 22.87404297 28.18621094 23.93558594 28.18554688 25.02929688 C28.1404591 32.8595409 28.1404591 32.8595409 27 34 C25.33382885 34.04063832 23.66611905 34.042721 22 34 C21.9906543 33.22809326 21.98130859 32.45618652 21.97167969 31.66088867 C21.91805294 28.16910418 21.83438983 24.67867069 21.75 21.1875 C21.73582031 19.97255859 21.72164062 18.75761719 21.70703125 17.50585938 C21.67480469 16.34248047 21.64257812 15.17910156 21.609375 13.98046875 C21.58842773 12.90692139 21.56748047 11.83337402 21.54589844 10.72729492 C21.23678338 7.90643533 21.23678338 7.90643533 19.18457031 6.12231445 C15.82767101 4.39772057 13.56254237 5.02839754 10 6 C7.06439378 8.99983059 6.61079243 11.26008595 6.5234375 15.38671875 C6.4925 16.40701172 6.4615625 17.42730469 6.4296875 18.47851562 C6.41164063 19.53748047 6.39359375 20.59644531 6.375 21.6875 C6.32423128 23.79567093 6.26975191 25.90375694 6.2109375 28.01171875 C6.19337402 28.94459717 6.17581055 29.87747559 6.15771484 30.83862305 C6 33 6 33 5 34 C3.35 34 1.7 34 0 34 C0 22.78 0 11.56 0 0 Z " fill="#1C1C1C" transform="translate(1097,338)"/>
<path d="M0 0 C2.69105198 2.17574416 4.45532928 3.91065856 6 7 C6.40837661 11.87695917 6.64885631 16.44274485 4.75 21 C1.76762834 24.40842475 0.22681705 25.81824933 -4.375 26.5 C-9.18061965 25.83715591 -10.64052442 24.43946309 -14 21 C-15.54462213 16.36613361 -15.63442261 11.83402446 -15 7 C-11.76603494 0.76134353 -6.81031678 -1.20028572 0 0 Z " fill="#F8F8F8" transform="translate(582,342)"/>
<path d="M0 0 C1.65 0 3.3 0 5 0 C5.33 1.65 5.66 3.3 6 5 C6.556875 4.175 7.11375 3.35 7.6875 2.5 C11 0 11 0 24 0 C24 10.89 24 21.78 24 33 C22.02 33 20.04 33 18 33 C17.67 24.09 17.34 15.18 17 6 C10.45810221 5.23336525 10.45810221 5.23336525 8.09448242 7.66113281 C6.8115344 10.4027438 6.57225391 12.39885927 6.48828125 15.421875 C6.45283203 16.44667969 6.41738281 17.47148437 6.38085938 18.52734375 C6.34702148 20.12255859 6.34702148 20.12255859 6.3125 21.75 C6.27833984 22.82894531 6.24417969 23.90789062 6.20898438 25.01953125 C6.12659337 27.67958377 6.05741355 30.33931035 6 33 C4.34385343 33.38218767 2.67542976 33.71395102 1 34 C0 33 0 33 -0.11352539 29.85717773 C-0.11336633 28.46597303 -0.10767506 27.07476239 -0.09765625 25.68359375 C-0.0962413 24.95253922 -0.09482635 24.22148468 -0.09336853 23.46827698 C-0.08775408 21.12464368 -0.07519922 18.78110461 -0.0625 16.4375 C-0.05748686 14.85221492 -0.05292363 13.26692834 -0.04882812 11.68164062 C-0.03777997 7.7877239 -0.02050572 3.89387795 0 0 Z " fill="#303030" transform="translate(1189,338)"/>
<path d="M0 0 C3.13578591 2.35183943 5.28124643 4.13657613 6.5 7.875 C7.21718006 13.9783487 7.74749943 20.49571535 4.75 26.0625 C1.86908555 29.66364307 -0.13981485 31.42160495 -4.5 32.875 C-9.79487804 33.38204484 -14.15500981 33.52347741 -19 31.1875 C-23.90100599 26.65406946 -25.31728807 22.61567899 -25.75 16.125 C-25.64260093 10.88197286 -24.55835014 6.36066845 -21.1640625 2.26171875 C-15.1993137 -2.90288082 -7.14004703 -2.29501512 0 0 Z M-18.5 7.875 C-20.59948946 12.07397892 -20.04696419 17.31498333 -19.5 21.875 C-17.88043957 25.10807772 -15.7763371 27.23683145 -12.5 28.875 C-8.38122799 29.2635634 -6.21100718 29.33320463 -2.6875 27.0625 C0.96822454 23.40677546 1.82898034 21.1373902 1.9375 16.0625 C1.88356457 12.0124395 1.74375661 9.35472776 -0.875 6.1875 C-4.46814544 3.02210997 -6.62339998 2.48044291 -11.4609375 2.515625 C-14.88006698 3.1182302 -16.43189052 5.24286067 -18.5 7.875 Z " fill="#0C0C0C" transform="translate(929.5,339.125)"/>
<path d="M0 0 C5.15878163 2.31255728 6.84061358 4.89046593 9 10 C9.98903978 16.60893247 10.30788511 23.12762816 6.3125 28.75 C3.27654592 32.35862759 -0.01365685 33.72167758 -4.6484375 34.37109375 C-10.30186563 34.50878469 -14.25205925 34.25391274 -18.62890625 30.46484375 C-23.24202829 25.53629457 -23.58774109 20.48840852 -23.41796875 13.98046875 C-22.79327408 9.52587032 -21.1388227 6.21632449 -18 3 C-12.4204648 -1.14151066 -6.68389071 -0.74825946 0 0 Z M-16 8 C-18.35571103 12.03836177 -18.73627386 16.42073575 -18 21 C-15.98442243 24.81520039 -13.8873044 28.00081488 -10 30 C-5.8517827 30.52795493 -3.76521126 30.47613145 -0.1875 28.25 C3.36238491 24.59868981 4.3166998 21.69860839 4.4375 16.625 C4.37610165 12.79783628 4.11433267 10.38661163 1.6875 7.375 C-1.48964867 4.56728722 -3.18485905 4.07547601 -7.375 3.6875 C-11.65664327 4.05660718 -13.07571696 4.90861508 -16 8 Z " fill="#0C0C0C" transform="translate(104,338)"/>
<path d="M0 0 C3.63040556 3.1903564 6.88001757 6.46830257 7.265625 11.421875 C7.42671258 22.21474281 7.42671258 22.21474281 4.0625 26.8125 C-0.15510077 31.03010077 -3.76818557 32.95041555 -9.75 33.125 C-14.58513019 33.07566194 -17.22978734 32.06805258 -20.9375 28.8125 C-25.44730918 23.68064817 -25.27388885 18.56801086 -25.22265625 11.98828125 C-24.74822523 6.70454944 -22.8312011 4.47666157 -18.875 1 C-13.43430505 -2.33461948 -5.81900873 -2.35236523 0 0 Z M-17.9375 6.8125 C-20.64378407 11.29120955 -20.59636988 15.71831095 -19.9375 20.8125 C-18.30219994 24.08310012 -16.9959308 26.03631741 -14.0625 28.1875 C-9.57106315 29.50851084 -6.83605304 29.29633625 -2.6875 27.0625 C0.44955578 24.49581799 1.7999548 22.68782283 2.36328125 18.6640625 C2.39479427 12.6765892 1.51292978 8.53519975 -2.625 3.9375 C-8.57220077 1.04426719 -13.53080593 2.14658863 -17.9375 6.8125 Z " fill="#080808" transform="translate(406.9375,339.1875)"/>
<path d="M0 0 C1.98 0 3.96 0 6 0 C6.33 0.99 6.66 1.98 7 3 C7.55816406 2.51402344 8.11632812 2.02804687 8.69140625 1.52734375 C12.54750179 -1.02381252 16.53440759 -0.67200663 21 0 C23.93423195 1.79646854 25.47205355 2.9441071 27 6 C27.08543895 8.10528933 27.10714725 10.21331157 27.09765625 12.3203125 C27.09443359 13.57714844 27.09121094 14.83398438 27.08789062 16.12890625 C27.07951172 17.44761719 27.07113281 18.76632812 27.0625 20.125 C27.05748489 21.46484211 27.05292201 22.804686 27.04882812 24.14453125 C27.03701086 27.42973206 27.02053617 30.71484397 27 34 C25.35 34 23.7 34 22 34 C21.98018066 33.29391602 21.96036133 32.58783203 21.93994141 31.86035156 C21.84459585 28.65653006 21.73495487 25.45335199 21.625 22.25 C21.5940625 21.13882812 21.563125 20.02765625 21.53125 18.8828125 C21.49257813 17.81289063 21.45390625 16.74296875 21.4140625 15.640625 C21.36693115 14.16384277 21.36693115 14.16384277 21.31884766 12.65722656 C20.99498701 9.9582225 20.4631862 8.27635632 19 6 C16.15916359 4.57958179 14.14522722 4.68547728 11 5 C8.25244931 7.10575071 7.13494144 8.32046483 6.45410156 11.74902344 C6.4331543 12.77543945 6.41220703 13.80185547 6.390625 14.859375 C6.35839844 15.97441406 6.32617188 17.08945312 6.29296875 18.23828125 C6.27878906 19.39714844 6.26460937 20.55601562 6.25 21.75 C6.22035156 22.92433594 6.19070313 24.09867187 6.16015625 25.30859375 C6.08949273 28.20579822 6.03677734 31.10219955 6 34 C4.02 34 2.04 34 0 34 C0 22.78 0 11.56 0 0 Z " fill="#171717" transform="translate(940,338)"/>
<path d="M0 0 C2.75329021 1.79562405 4.52627461 3.05254922 6 6 C7.19635957 18.37377616 7.19635957 18.37377616 4 22.75 C0.82094167 25.13429375 -1.14987836 26.08277613 -5.0703125 26.3046875 C-8.51830985 25.76026687 -9.97794681 23.67624687 -12 21 C-14.6182006 17.38438964 -14.53883827 13.30241632 -14 9 C-11.24132094 1.68950049 -7.92133099 -0.97279503 0 0 Z " fill="#F6F6F6" transform="translate(1268,342)"/>
<path d="M0 0 C3.49406769 1.66762322 4.82670681 2.74006022 7 6 C7.65050813 11.24188524 8.16185652 17.03241119 5.1875 21.625 C2.59900807 24.43536266 0.96008678 25.87477129 -2.875 26.375 C-6.76603288 25.90807605 -8.25334345 24.74665655 -11 22 C-13.71517347 17.53800163 -13.66520367 13.08119428 -13 8 C-9.86724021 1.95053282 -6.92980089 -0.69298009 0 0 Z " fill="#F6F6F6" transform="translate(1068,342)"/>
<path d="M0 0 C2.5625 1.8125 2.5625 1.8125 4 5 C4.76989878 11.47252114 4.90764017 16.56904248 1 22 C-2.06168978 24.55140815 -3.54284835 25 -7.5625 25 C-11.74577052 23.78304858 -12.68111309 22.62544255 -15 19 C-15.93835459 13.48716677 -16.26756404 7.10561587 -13.125 2.25 C-9.13840795 -1.97109746 -5.37129672 -1.32612832 0 0 Z " fill="#F9F9F9" transform="translate(306,343)"/>
<path d="M0 0 C2.75329021 1.79562405 4.52627461 3.05254922 6 6 C6.14851844 7.93359586 6.22130833 9.87342097 6.25 11.8125 C6.27578125 12.85019531 6.3015625 13.88789063 6.328125 14.95703125 C5.86794235 19.22467748 4.18599519 21.81400481 1.1875 24.8125 C-1.83495155 26.45325941 -3.60637518 26.55406119 -7 26 C-9.57285724 23.827365 -11.48996919 22.02006162 -13 19 C-13.14851844 17.06640414 -13.22130833 15.12657903 -13.25 13.1875 C-13.27578125 12.14980469 -13.3015625 11.11210937 -13.328125 10.04296875 C-12.95408344 6.57417855 -12.07568054 4.77889007 -10 2 C-6.2626144 -0.4915904 -4.42668417 -0.45793285 0 0 Z " fill="#F9F9F9" transform="translate(815,342)"/>
<path d="M0 0 C1.65 0 3.3 0 5 0 C5.02505615 0.74161377 5.0501123 1.48322754 5.07592773 2.24731445 C5.19186132 5.60255328 5.31459985 8.95750944 5.4375 12.3125 C5.47681641 13.47974609 5.51613281 14.64699219 5.55664062 15.84960938 C5.61948242 17.52700195 5.61948242 17.52700195 5.68359375 19.23828125 C5.72025146 20.26993408 5.75690918 21.30158691 5.79467773 22.36450195 C5.90161242 25.10748258 5.90161242 25.10748258 7 28 C12.21708153 28.9729927 12.21708153 28.9729927 17.375 28.375 C20.15898313 26.01932197 20.8824214 22.95404323 21.31884766 19.4128418 C21.35026855 18.51734619 21.38168945 17.62185059 21.4140625 16.69921875 C21.45273437 15.72275391 21.49140625 14.74628906 21.53125 13.74023438 C21.5621875 12.73283203 21.593125 11.72542969 21.625 10.6875 C21.66367187 9.66076172 21.70234375 8.63402344 21.7421875 7.57617188 C21.83614897 5.05095735 21.9218154 2.52574408 22 0 C23.65 0 25.3 0 27 0 C27 11.22 27 22.44 27 34 C25.35 34 23.7 34 22 34 C21.67 32.68 21.34 31.36 21 30 C20.38125 30.66 19.7625 31.32 19.125 32 C14.78430535 34.77804457 11.03012599 34.98289818 6 34 C3.17575712 31.80977082 1.58491397 30.16982793 0 27 C-0.08527628 24.96767366 -0.10716135 22.93252994 -0.09765625 20.8984375 C-0.09443359 19.68671875 -0.09121094 18.475 -0.08789062 17.2265625 C-0.07951172 15.95554687 -0.07113281 14.68453125 -0.0625 13.375 C-0.05798828 12.09625 -0.05347656 10.8175 -0.04882812 9.5 C-0.03701203 6.33328708 -0.02053815 3.16666644 0 0 Z " fill="#070707" transform="translate(597,338)"/>
<path d="M0 0 C50.49 0 100.98 0 153 0 C153 13.86 153 27.72 153 42 C84.69 42 16.38 42 -54 42 C-54 41.67 -54 41.34 -54 41 C13.98 41 81.96 41 152 41 C152 27.8 152 14.6 152 1 C132.75497312 1.1079329 113.50998382 1.21991268 94.26502514 1.33933926 C85.3296102 1.39465818 76.39419127 1.44813802 67.45874023 1.49731445 C59.67218297 1.54017257 51.88565494 1.5864547 44.09914285 1.63687855 C39.97483351 1.66346635 35.85052992 1.68831913 31.72618675 1.70907402 C27.84633497 1.7286526 23.96653878 1.75280007 20.08673668 1.78049088 C18.66089385 1.78985483 17.23503882 1.79753247 15.8091774 1.80341911 C13.8658991 1.81169129 11.92265216 1.82655695 9.97941589 1.84178162 C8.89077838 1.84823417 7.80214087 1.85468672 6.68051434 1.8613348 C3.89805077 1.88576371 3.89805077 1.88576371 1 3 C0.505 1.515 0.505 1.515 0 0 Z " fill="#373E87" transform="translate(1127,263)"/>
<path d="M0 0 C1.65 0 3.3 0 5 0 C5.33 1.32 5.66 2.64 6 4 C6.61875 3.34 7.2375 2.68 7.875 2 C12.22837426 -0.78615952 15.95447256 -0.84506371 21 0 C23.93423195 1.79646854 25.47205355 2.9441071 27 6 C27.08527628 8.03232634 27.10716135 10.06747006 27.09765625 12.1015625 C27.09443359 13.31328125 27.09121094 14.525 27.08789062 15.7734375 C27.07951172 17.04445313 27.07113281 18.31546875 27.0625 19.625 C27.05798828 20.90375 27.05347656 22.1825 27.04882812 23.5 C27.03701203 26.66671292 27.02053815 29.83333356 27 33 C25.35 33 23.7 33 22 33 C21.98598145 31.94087402 21.98598145 31.94087402 21.97167969 30.86035156 C21.91794341 27.65619455 21.83430243 24.45349243 21.75 21.25 C21.73582031 20.13882812 21.72164062 19.02765625 21.70703125 17.8828125 C21.67480469 16.81289063 21.64257812 15.74296875 21.609375 14.640625 C21.58842773 13.65610352 21.56748047 12.67158203 21.54589844 11.65722656 C20.85558573 8.29704608 19.68537266 7.07888033 17 5 C13.52517825 4.64542635 11.31622581 4.8945914 8 6 C6.16156552 9.50956292 5.71748186 12.59512438 5.5859375 16.51953125 C5.54726562 17.54111328 5.50859375 18.56269531 5.46875 19.61523438 C5.4378125 20.67033203 5.406875 21.72542969 5.375 22.8125 C5.33632812 23.88693359 5.29765625 24.96136719 5.2578125 26.06835938 C5.16381387 28.71207088 5.07815427 31.3557805 5 34 C3.35 34 1.7 34 0 34 C0 22.78 0 11.56 0 0 Z " fill="#0E0E0E" transform="translate(117,338)"/>
<path d="M0 0 C1.65 0 3.3 0 5 0 C5.33 1.32 5.66 2.64 6 4 C6.61875 3.34 7.2375 2.68 7.875 2 C12.21569465 -0.77804457 15.96987401 -0.98289818 21 0 C23.82424288 2.19022918 25.41508603 3.83017207 27 7 C27.08527628 9.03232634 27.10716135 11.06747006 27.09765625 13.1015625 C27.09443359 14.31328125 27.09121094 15.525 27.08789062 16.7734375 C27.07951172 18.04445313 27.07113281 19.31546875 27.0625 20.625 C27.05798828 21.90375 27.05347656 23.1825 27.04882812 24.5 C27.03701203 27.66671292 27.02053815 30.83333356 27 34 C25.35 34 23.7 34 22 34 C21.98018066 33.29391602 21.96036133 32.58783203 21.93994141 31.86035156 C21.84459585 28.65653006 21.73495487 25.45335199 21.625 22.25 C21.5940625 21.13882812 21.563125 20.02765625 21.53125 18.8828125 C21.49257812 17.81289063 21.45390625 16.74296875 21.4140625 15.640625 C21.36693115 14.16384277 21.36693115 14.16384277 21.31884766 12.65722656 C20.99498701 9.9582225 20.4631862 8.27635632 19 6 C16.11138291 4.55569145 14.20352299 4.62311494 11 5 C8.1153591 6.72655507 8.1153591 6.72655507 6 10 C5.24339503 13.93299942 5.2094736 17.81574642 5.1875 21.8125 C5.16236328 22.88693359 5.13722656 23.96136719 5.11132812 25.06835938 C5.05256705 27.71260771 5.01620624 30.35520488 5 33 C3.35 33 1.7 33 0 33 C0 22.11 0 11.22 0 0 Z " fill="#060606" transform="translate(1219,338)"/>
<path d="M0 0 C1.65 0 3.3 0 5 0 C5.33 0.99 5.66 1.98 6 3 C6.54785156 2.5153125 7.09570312 2.030625 7.66015625 1.53125 C11.76570827 -1.15552194 16.27393629 -0.76317177 21 0 C24.41311667 2.52570633 25.66637768 3.99913304 27 8 C27.08291953 9.9920303 27.10738177 11.98673713 27.09765625 13.98046875 C27.09443359 15.14384766 27.09121094 16.30722656 27.08789062 17.50585938 C27.07951172 18.72080078 27.07113281 19.93574219 27.0625 21.1875 C27.05798828 22.41404297 27.05347656 23.64058594 27.04882812 24.90429688 C27.03703065 27.93624668 27.02056921 30.96809906 27 34 C25.35 34 23.7 34 22 34 C21.98018066 33.29391602 21.96036133 32.58783203 21.93994141 31.86035156 C21.84459585 28.65653006 21.73495487 25.45335199 21.625 22.25 C21.5940625 21.13882812 21.563125 20.02765625 21.53125 18.8828125 C21.49257812 17.81289063 21.45390625 16.74296875 21.4140625 15.640625 C21.36693115 14.16384277 21.36693115 14.16384277 21.31884766 12.65722656 C20.99498701 9.9582225 20.4631862 8.27635632 19 6 C16.11138291 4.55569145 14.20352299 4.62311494 11 5 C8.1153591 6.72655507 8.1153591 6.72655507 6 10 C5.24339503 13.93299942 5.2094736 17.81574642 5.1875 21.8125 C5.16236328 22.88693359 5.13722656 23.96136719 5.11132812 25.06835938 C5.05256705 27.71260771 5.01620624 30.35520488 5 33 C3.35 33 1.7 33 0 33 C0 22.11 0 11.22 0 0 Z " fill="#060606" transform="translate(150,338)"/>
<path d="M0 0 C0 2.97 0 5.94 0 9 C2.64 9 5.28 9 8 9 C8 10.65 8 12.3 8 14 C5.36 14 2.72 14 0 14 C0.33 21.59 0.66 29.18 1 37 C3.31 37.33 5.62 37.66 8 38 C8 39.32 8 40.64 8 42 C4.94306678 43.52846661 2.37015453 43.23242445 -1 43 C-4.1850357 41.23984869 -4.83296972 40.50109084 -6 37 C-6.08209792 35.22686149 -6.10746294 33.45079225 -6.09765625 31.67578125 C-6.09282227 30.13374023 -6.09282227 30.13374023 -6.08789062 28.56054688 C-6.07951172 27.48869141 -6.07113281 26.41683594 -6.0625 25.3125 C-6.05798828 24.22904297 -6.05347656 23.14558594 -6.04882812 22.02929688 C-6.03703743 19.35280915 -6.02058063 16.67643223 -6 14 C-7.98 14 -9.96 14 -12 14 C-12 12.35 -12 10.7 -12 9 C-10.02 9 -8.04 9 -6 9 C-6 6.36 -6 3.72 -6 1 C-4 0 -4 0 0 0 Z " fill="#1D1D1D" transform="translate(248,329)"/>
<path d="M0 0 C1.27875 0.00257813 2.5575 0.00515625 3.875 0.0078125 C5.15375 0.00523437 6.4325 0.00265625 7.75 0 C10.875 0.1328125 10.875 0.1328125 11.875 1.1328125 C11.91563832 2.79898365 11.917721 4.46669345 11.875 6.1328125 C11.215 5.9678125 10.555 5.8028125 9.875 5.6328125 C6.08671499 5.00143167 2.71888013 4.94376922 -1.125 5.1328125 C-3.41228734 6.97165131 -3.41228734 6.97165131 -3.25 9.7578125 C-3.20875 10.5415625 -3.1675 11.3253125 -3.125 12.1328125 C-2.3 12.3596875 -1.475 12.5865625 -0.625 12.8203125 C4.40922871 14.70814827 9.05541557 17.31322807 12.875 21.1328125 C13.2121918 25.01051816 13.1941797 27.93013577 10.875 31.1328125 C7.0730965 33.88801077 4.41722617 34.52134501 -0.25 34.4453125 C-1.28382813 34.44144531 -2.31765625 34.43757813 -3.3828125 34.43359375 C-6.125 34.1328125 -6.125 34.1328125 -9.125 32.1328125 C-9.3125 29.5078125 -9.3125 29.5078125 -9.125 27.1328125 C-8.135 27.4628125 -7.145 27.7928125 -6.125 28.1328125 C-4.06354893 28.2018035 -1.99998599 28.21748977 0.0625 28.1953125 C1.14917969 28.18628906 2.23585938 28.17726563 3.35546875 28.16796875 C4.18691406 28.15636719 5.01835937 28.14476562 5.875 28.1328125 C5.875 26.1528125 5.875 24.1728125 5.875 22.1328125 C5.04355469 21.73449219 4.21210938 21.33617187 3.35546875 20.92578125 C2.26878906 20.39597656 1.18210937 19.86617188 0.0625 19.3203125 C-1.01644531 18.79824219 -2.09539062 18.27617187 -3.20703125 17.73828125 C-5.71732811 16.3571139 -7.41231817 15.3949554 -9.125 13.1328125 C-9.625 9.7578125 -9.625 9.7578125 -9.125 6.1328125 C-6.6875 3.2578125 -6.6875 3.2578125 -4.125 1.1328125 C-3.125 0.1328125 -3.125 0.1328125 0 0 Z " fill="#101010" transform="translate(436.125,337.8671875)"/>
<path d="M0 0 C0.66 0.33 1.32 0.66 2 1 C2 2.65 2 4.3 2 6 C1.24074219 5.90460938 0.48148438 5.80921875 -0.30078125 5.7109375 C-1.79158203 5.54464844 -1.79158203 5.54464844 -3.3125 5.375 C-4.79169922 5.20097656 -4.79169922 5.20097656 -6.30078125 5.0234375 C-9.22657416 4.74523005 -9.22657416 4.74523005 -12 7 C-11.95831483 9.41226272 -11.95831483 9.41226272 -11 12 C-8.3580973 13.77256392 -8.3580973 13.77256392 -5.125 15.0625 C1.84395399 18.09357517 1.84395399 18.09357517 4 22 C4.08142163 26.47818949 3.45168103 28.44134188 0.625 31.9375 C-3.70923662 35.14609749 -8.86855132 34.54260031 -14 34 C-15.341111 33.69948349 -16.67874607 33.37838728 -18 33 C-18 31.02 -18 29.04 -18 27 C-17.34773437 27.15597656 -16.69546875 27.31195313 -16.0234375 27.47265625 C-11.02937096 28.58490411 -7.06165813 29.3320153 -2 28 C-2.18980587 25.14459056 -2.18980587 25.14459056 -4 22 C-6.70634505 20.25837732 -9.46098783 18.86392851 -12.37109375 17.4921875 C-15.13759586 15.92189953 -16.40859478 14.72737539 -18 12 C-18.5625 8.5625 -18.5625 8.5625 -18 5 C-13.22528707 -1.23365299 -7.41484414 -0.77700463 0 0 Z " fill="#0D0D0D" transform="translate(724,338)"/>
<path d="M0 0 C0.97066406 -0.00257813 1.94132813 -0.00515625 2.94140625 -0.0078125 C5.4375 0.125 5.4375 0.125 7.4375 1.125 C7.4375 2.775 7.4375 4.425 7.4375 6.125 C6.756875 5.96 6.07625 5.795 5.375 5.625 C2.00583481 5.05152507 -1.15071459 4.99377748 -4.5625 5.125 C-5.91868499 6.25034105 -5.91868499 6.25034105 -5.625 9.1875 C-5.604375 10.156875 -5.58375 11.12625 -5.5625 12.125 C-4.73105469 12.51171875 -3.89960937 12.8984375 -3.04296875 13.296875 C-1.95628906 13.81765625 -0.86960937 14.3384375 0.25 14.875 C1.32894531 15.38546875 2.40789063 15.8959375 3.51953125 16.421875 C6.40441377 18.10568862 7.8401509 19.22277417 9.4375 22.125 C9.36625823 26.11453939 9.05390078 28.34422568 6.5625 31.5 C3.25016895 34.03295904 0.54170281 34.2621555 -3.5 34.25 C-4.78197266 34.25386719 -4.78197266 34.25386719 -6.08984375 34.2578125 C-8.38930852 34.13430254 -10.35890348 33.76920687 -12.5625 33.125 C-12.5625 31.145 -12.5625 29.165 -12.5625 27.125 C-12.02109375 27.28871094 -11.4796875 27.45242188 -10.921875 27.62109375 C-8.16027407 28.21090587 -5.63431861 28.22109308 -2.8125 28.1875 C-1.82765625 28.17847656 -0.8428125 28.16945313 0.171875 28.16015625 C0.91953125 28.14855469 1.6671875 28.13695312 2.4375 28.125 C2.7675 26.145 3.0975 24.165 3.4375 22.125 C2.7775 21.8775 2.1175 21.63 1.4375 21.375 C-10.5625 16.375 -10.5625 16.375 -12.5625 12.125 C-13.14177796 8.23556226 -12.89598129 6.64247097 -10.75 3.3125 C-7.38275935 -0.05474065 -4.561212 -0.01214704 0 0 Z " fill="#0E0E0E" transform="translate(640.5625,337.875)"/>
<path d="M0 0 C0 2.97 0 5.94 0 9 C2.97 9 5.94 9 9 9 C9 10.65 9 12.3 9 14 C6.03 14 3.06 14 0 14 C0.13816959 17.64616671 0.28681534 21.29183074 0.4375 24.9375 C0.47681641 25.97841797 0.51613281 27.01933594 0.55664062 28.09179688 C0.61948242 29.57583008 0.61948242 29.57583008 0.68359375 31.08984375 C0.72025146 32.00628662 0.75690918 32.92272949 0.79467773 33.86694336 C0.77003864 35.9820728 0.77003864 35.9820728 2 37 C4.32817964 37.36760731 6.6618385 37.70241581 9 38 C8.67 39.65 8.34 41.3 8 43 C0.67973856 43.36601307 0.67973856 43.36601307 -2.4375 41.6875 C-5.2631566 38.63579087 -5.11951057 35.63141313 -5.09765625 31.67578125 C-5.09282227 30.13374023 -5.09282227 30.13374023 -5.08789062 28.56054688 C-5.07951172 27.48869141 -5.07113281 26.41683594 -5.0625 25.3125 C-5.05798828 24.22904297 -5.05347656 23.14558594 -5.04882812 22.02929688 C-5.03703743 19.35280915 -5.02058063 16.67643223 -5 14 C-6.98 14 -8.96 14 -11 14 C-11 12.35 -11 10.7 -11 9 C-9.02 9 -7.04 9 -5 9 C-5 6.36 -5 3.72 -5 1 C-3 0 -3 0 0 0 Z " fill="#141414" transform="translate(884,329)"/>
<path d="M0 0 C0 2.97 0 5.94 0 9 C2.97 9 5.94 9 9 9 C9 10.65 9 12.3 9 14 C6.03 14 3.06 14 0 14 C0.33 21.26 0.66 28.52 1 36 C3.31 36.66 5.62 37.32 8 38 C7.67 39.65 7.34 41.3 7 43 C2.98786096 43.39334696 0.71941831 43.46307385 -2.71875 41.25 C-6.20688817 36.28059768 -5.53702911 31.59779708 -5.3125 25.6875 C-5.27866211 24.00430664 -5.27866211 24.00430664 -5.24414062 22.28710938 C-5.18533776 19.52337464 -5.10320401 16.76237446 -5 14 C-6.98 14 -8.96 14 -11 14 C-11 12.35 -11 10.7 -11 9 C-9.02 9 -7.04 9 -5 9 C-5 6.36 -5 3.72 -5 1 C-3 0 -3 0 0 0 Z " fill="#0D0D0D" transform="translate(660,329)"/>
<path d="M0 0 C0 1.98 0 3.96 0 6 C-0.86625 5.67 -1.7325 5.34 -2.625 5 C-7.16930359 3.65353968 -10.31890962 3.31228121 -14.75 5.125 C-18.11652786 7.93043988 -18.7488518 10.71275743 -19.21875 14.9921875 C-19.42435865 19.53271189 -18.89795037 22.48106026 -16 26 C-12.77016409 28.3388467 -9.90654747 28.3125238 -6 28 C-2.72435637 27.07585059 -2.72435637 27.07585059 0 26 C0 27.65 0 29.3 0 31 C-4.78593 33.80864437 -9.59732963 33.64205648 -15 33 C-20.14853681 30.4257316 -23.182008 27.45397599 -25 22 C-25.549429 15.36458822 -25.55538623 9.73449391 -22 4 C-16.39121194 -2.44518628 -7.74798409 -2.58266136 0 0 Z " fill="#0E0E0E" transform="translate(235,339)"/>
<path d="M0 0 C1.70736328 0.02320313 1.70736328 0.02320313 3.44921875 0.046875 C6.3125 0.25 6.3125 0.25 8.3125 1.25 C8.3125 2.9 8.3125 4.55 8.3125 6.25 C7.631875 6.085 6.95125 5.92 6.25 5.75 C0.23588838 4.56907089 0.23588838 4.56907089 -5.43359375 6.296875 C-7.62189375 8.08110042 -9.41506819 9.70513637 -10.6875 12.25 C-11.31310838 20.08898247 -11.31310838 20.08898247 -8.6875 27.25 C-3.56411645 30.2386404 1.73416181 29.56255016 7.3125 28.25 C6.9375 30.6875 6.9375 30.6875 6.3125 33.25 C2.36127519 35.22561241 -2.38090465 34.68248694 -6.6875 34.25 C-11.55760775 31.94776725 -14.4513768 29.1522701 -16.6875 24.25 C-17.69765996 17.00894681 -17.47419449 10.94938437 -13.26953125 4.8359375 C-9.15637751 0.71262783 -5.7479433 -0.13108195 0 0 Z " fill="#0E0E0E" transform="translate(696.6875,337.75)"/>
<path d="M0 0 C24.42 0 48.84 0 74 0 C73.34 2.64 72.68 5.28 72 8 C71.34 8 70.68 8 70 8 C70.33 5.69 70.66 3.38 71 1 C47.9 1 24.8 1 1 1 C1.03029297 5.97924561 1.06058594 10.95849121 1.09179688 16.08862305 C1.1921619 32.60087332 1.29183228 49.11312773 1.39115143 65.62538433 C1.45134308 75.62973424 1.51176651 85.63408264 1.57275391 95.63842773 C1.62596845 104.36781737 1.67872946 113.09720961 1.73096704 121.82660514 C1.75858928 126.43999006 1.78642421 131.05337345 1.81480408 135.66675377 C2.04151591 172.56504909 2.04151591 172.56504909 2 190 C2.66 190 3.32 190 4 190 C3.01 193.3 2.02 196.6 1 200 C0.67 200 0.34 200 0 200 C0 134 0 68 0 0 Z " fill="#847EAD" transform="translate(591,43)"/>
<path d="M0 0 C1 1 1 1 1.0625 3.5625 C1.041875 4.366875 1.02125 5.17125 1 6 C0.505 5.835 0.01 5.67 -0.5 5.5 C-4.04691698 4.7906166 -7.43199771 4.34869799 -11 5 C-13.69105198 7.17574416 -15.45532928 8.91065856 -17 12 C-17.58850894 17.65873983 -17.29416707 22.17639822 -14 27 C-10.83854353 29.39834629 -7.87523292 29.31634554 -4 29 C-1.21433941 28.08742694 -1.21433941 28.08742694 1 27 C1 28.65 1 30.3 1 32 C-3.3565338 34.47395924 -7.08934124 34.53897474 -12 34 C-15.98791244 32.61956877 -19.44430017 30.58351823 -22.08203125 27.203125 C-24.29102792 21.901533 -23.86362386 15.57484094 -23 10 C-17.35280176 0.04124792 -10.85003933 -0.94685608 0 0 Z " fill="#0A0A0A" transform="translate(559,338)"/>
<path d="M0 0 C0.99 0.33 1.98 0.66 3 1 C3 2.32 3 3.64 3 5 C5.75031587 4.85888117 8.50015418 4.71228835 11.25 4.5625 C12.02730469 4.52318359 12.80460938 4.48386719 13.60546875 4.44335938 C14.35957031 4.40146484 15.11367188 4.35957031 15.890625 4.31640625 C16.58188477 4.27974854 17.27314453 4.24309082 17.98535156 4.20532227 C20.06628329 3.99324476 21.98572422 3.55491323 24 3 C29.37129841 15.48519362 29.37129841 15.48519362 31 22 C29.02 22 27.04 22 25 22 C24.32694982 20.39850114 23.66177773 18.79368971 23 17.1875 C22.62875 16.29417969 22.2575 15.40085937 21.875 14.48046875 C21 12 21 12 21 9 C11.1 9.495 11.1 9.495 1 10 C-0.32 13.96 -1.64 17.92 -3 22 C-4.98 22 -6.96 22 -9 22 C-8.27019021 19.53810831 -7.5349034 17.07818644 -6.7890625 14.62109375 C-6.17052414 12.56644404 -5.57989837 10.50338795 -5 8.4375 C-4.67 7.633125 -4.34 6.82875 -4 6 C-3.01 5.67 -2.02 5.34 -1 5 C-0.67 5.66 -0.34 6.32 0 7 C0 4.69 0 2.38 0 0 Z " fill="#3B4292" transform="translate(505,349)"/>
<path d="M0 0 C1.98 0 3.96 0 6 0 C6.33 0.99 6.66 1.98 7 3 C7.515625 2.505 8.03125 2.01 8.5625 1.5 C11.80680017 -0.49649241 14.26217334 -0.21564385 18 0 C18 1.98 18 3.96 18 6 C15.36 6 12.72 6 10 6 C6.44510723 11.58489856 6.45927817 16.87482375 6.3125 23.375 C6.27833984 24.39722656 6.24417969 25.41945313 6.20898438 26.47265625 C6.12691412 28.98166114 6.05763124 31.49033465 6 34 C4.02 34 2.04 34 0 34 C0 22.78 0 11.56 0 0 Z " fill="#202020" transform="translate(830,338)"/>
<path d="M0 0 C1.65 0 3.3 0 5 0 C5 15.18 5 30.36 5 46 C0 45 0 45 -2.3125 42.5625 C-4 40 -4 40 -4 38 C-3.01 38 -2.02 38 -1 38 C-0.67 25.46 -0.34 12.92 0 0 Z " fill="#363D96" transform="translate(372,325)"/>
<path d="M0 0 C0.33 0 0.66 0 1 0 C1 66.66 1 133.32 1 202 C0.34 201.67 -0.32 201.34 -1 201 C-1 138.63 -1 76.26 -1 12 C-1.66 12 -2.32 12 -3 12 C-3.33 12.66 -3.66 13.32 -4 14 C-3.00956295 9.16371695 -2.04301154 4.52381127 0 0 Z " fill="#8580A7" transform="translate(1050,103)"/>
<path d="M0 0 C1.65 0 3.3 0 5 0 C4.67 0.99 4.34 1.98 4 3 C3.92964561 5.57497068 3.9065066 8.11449929 3.9375 10.6875 C3.958125 13.100625 3.97875 15.51375 4 18 C9.28 18 14.56 18 20 18 C20 19.65 20 21.3 20 23 C14.72 23 9.44 23 4 23 C4 28.28 4 33.56 4 39 C3.67 39 3.34 39 3 39 C2.67 35.04 2.34 31.08 2 27 C1.34 27 0.68 27 0 27 C0 18.09 0 9.18 0 0 Z " fill="#4E559D" transform="translate(993,327)"/>
<path d="M0 0 C1.98 0 3.96 0 6 0 C6 10.89 6 21.78 6 33 C4.02 33 2.04 33 0 33 C0 22.11 0 11.22 0 0 Z " fill="#222222" transform="translate(785,338)"/>
<path d="M0 0 C1.98 0 3.96 0 6 0 C8.77339503 5.86679718 11.08452118 11.82596614 13.25 17.9375 C13.52021973 18.69538818 13.79043945 19.45327637 14.06884766 20.23413086 C16 25.74878165 16 25.74878165 16 28 C15.34 28.33 14.68 28.66 14 29 C13.34444881 31.52733235 13.34444881 31.52733235 13 34 C10.84835128 30.77252692 9.65962382 27.55455299 8.3984375 23.92578125 C8.0364476 22.90003242 8.0364476 22.90003242 7.66714478 21.8535614 C6.89917764 19.6745632 6.13702192 17.49358354 5.375 15.3125 C4.85454881 13.83254785 4.33371985 12.35272849 3.8125 10.87304688 C2.53728208 7.25022278 1.26727143 3.62561105 0 0 Z " fill="#454C92" transform="translate(744,325)"/>
<path d="M0 0 C2.54384735 1.27192368 2.58575975 2.07799892 3.5078125 4.7109375 C3.77207031 5.46117187 4.03632812 6.21140625 4.30859375 6.984375 C4.57800781 7.77328125 4.84742188 8.5621875 5.125 9.375 C5.40214844 10.15617187 5.67929687 10.93734375 5.96484375 11.7421875 C8 17.59702124 8 17.59702124 8 21 C3.38 21 -1.24 21 -6 21 C-5.42381249 15.85404946 -4.25256722 11.44921945 -2.4375 6.5625 C-1.98246094 5.32628906 -1.52742187 4.09007812 -1.05859375 2.81640625 C-0.70925781 1.88699219 -0.35992188 0.95757812 0 0 Z " fill="#F3F5FB" transform="translate(515,332)"/>
<path d="M0 0 C1.65 0 3.3 0 5 0 C5 10.89 5 21.78 5 33 C3.35 33 1.7 33 0 33 C0 22.11 0 11.22 0 0 Z " fill="#020202" transform="translate(1086,338)"/>
<path d="M0 0 C1.65 0 3.3 0 5 0 C5 10.89 5 21.78 5 33 C3.35 33 1.7 33 0 33 C0 22.11 0 11.22 0 0 Z " fill="#020202" transform="translate(895,338)"/>
<path d="M0 0 C1.65 0 3.3 0 5 0 C5 10.89 5 21.78 5 33 C3.35 33 1.7 33 0 33 C0 22.11 0 11.22 0 0 Z " fill="#020202" transform="translate(671,338)"/>
<path d="M0 0 C1.65 0 3.3 0 5 0 C5 10.89 5 21.78 5 33 C3.35 33 1.7 33 0 33 C0 22.11 0 11.22 0 0 Z " fill="#020202" transform="translate(418,338)"/>
<path d="M0 0 C0.41856088 4.269321 0.48038638 6.3303705 -2.0625 9.875 C-5.53922135 12.39007502 -7.72406696 13 -12 13 C-13.9375 11.9375 -13.9375 11.9375 -15 10 C-15.39015561 6.87875511 -15.55877549 4.90024939 -13.875 2.1875 C-9.71392029 -0.44785049 -4.77509496 -0.11369274 0 0 Z " fill="#F2F2F2" transform="translate(867,355)"/>
<path d="M0 0 C2.85306699 0.42492487 4.60072963 0.76837831 6.9375 2.4375 C8.93275994 5.43038991 8.9375 6.66835596 8.9375 10.4375 C2.9975 10.4375 -2.9425 10.4375 -9.0625 10.4375 C-7.90321348 4.64106741 -6.24944257 0.89277751 0 0 Z " fill="#E5E5E5" transform="translate(1142.0625,341.5625)"/>
<path d="M0 0 C1.32 0 2.64 0 4 0 C4 10.56 4 21.12 4 32 C2.68 32 1.36 32 0 32 C0 21.44 0 10.88 0 0 Z " fill="#000000" transform="translate(1208,339)"/>
<path d="M0 0 C2.625 0.375 2.625 0.375 5 1 C5 2.65 5 4.3 5 6 C2.625 6.625 2.625 6.625 0 7 C-0.66 6.34 -1.32 5.68 -2 5 C-2.50660156 6.24716797 -2.50660156 6.24716797 -3.0234375 7.51953125 C-3.46945312 8.60621094 -3.91546875 9.69289063 -4.375 10.8125 C-4.81585937 11.89144531 -5.25671875 12.97039062 -5.7109375 14.08203125 C-7 17 -7 17 -9 20 C-9.33 19.01 -9.66 18.02 -10 17 C-10.99 17 -11.98 17 -13 17 C-9.92482916 6.44191344 -9.92482916 6.44191344 -8 2 C-7.05125 2.04125 -6.1025 2.0825 -5.125 2.125 C-1.89755144 2.34973818 -1.89755144 2.34973818 0 0 Z " fill="#444B8F" transform="translate(786,323)"/>
<path d="M0 0 C2.4375 1.6875 2.4375 1.6875 4 4 C4 5.65 4 7.3 4 9 C-1.61 9 -7.22 9 -13 9 C-12 4 -12 4 -9.875 1.6875 C-6.24065806 -0.44570071 -4.151996 -0.60392669 0 0 Z " fill="#F4F4F4" transform="translate(469,342)"/>
<path d="M0 0 C3.73785618 0.70084803 5.39432914 1.80793366 8 4.5625 C8.33 6.2125 8.66 7.8625 9 9.5625 C3.06 9.5625 -2.88 9.5625 -9 9.5625 C-7.68349782 4.29649127 -5.5551848 1.04159715 0 0 Z " fill="#F4F4F4" transform="translate(270,341.4375)"/>
<path d="M0 0 C2.875 2.25 2.875 2.25 5 5 C5 6.32 5 7.64 5 9 C-0.61 9 -6.22 9 -12 9 C-11 4 -11 4 -8.8125 1.6875 C-5.43721126 -0.33767324 -3.86719695 -0.72509943 0 0 Z " fill="#F7F7F7" transform="translate(198,342)"/>
<path d="M0 0 C3.73727628 0.7007393 5.43226468 1.7681998 8 4.5625 C8 6.2125 8 7.8625 8 9.5625 C2.39 9.5625 -3.22 9.5625 -9 9.5625 C-7.68349782 4.29649127 -5.5551848 1.04159715 0 0 Z " fill="#F6F6F6" transform="translate(1172,341.4375)"/>
<path d="M0 0 C26.4 0 52.8 0 80 0 C80.495 2.475 80.495 2.475 81 5 C80.65591599 4.51202438 80.31183197 4.02404877 79.95732117 3.52128601 C77.06484981 1.27317452 74.19422607 1.60530955 70.68286133 1.65942383 C69.94115189 1.65898575 69.19944244 1.65854767 68.43525696 1.65809631 C65.98391384 1.66018617 63.53325487 1.68352581 61.08203125 1.70703125 C59.38238397 1.71262652 57.68273185 1.71689694 55.983078 1.71989441 C51.50968059 1.73134866 47.03657541 1.76082073 42.56329346 1.79400635 C37.99861606 1.82469479 33.43389145 1.83839712 28.86914062 1.85351562 C19.91263203 1.88568995 10.95634031 1.93689325 2 2 C2 2.99 2 3.98 2 5 C1.34 5 0.68 5 0 5 C0 6.32 0 7.64 0 9 C-0.99 9 -1.98 9 -3 9 C-2.01 6.03 -1.02 3.06 0 0 Z " fill="#394087" transform="translate(683,43)"/>
<path d="M0 0 C0.66 0 1.32 0 2 0 C1.25 6.75 1.25 6.75 -1 9 C-1.64767793 11.57061311 -1.64767793 11.57061311 -2 14 C-1.34 14 -0.68 14 0 14 C0 15.32 0 16.64 0 18 C4.62 18 9.24 18 14 18 C13.67 16.68 13.34 15.36 13 14 C14.32 14 15.64 14 17 14 C17.33 12.68 17.66 11.36 18 10 C18.66 12.31 19.32 14.62 20 17 C16.02389214 19.71486934 11.86098023 19.22440753 7.25 19.125 C6.45722656 19.11597656 5.66445313 19.10695313 4.84765625 19.09765625 C2.89830719 19.07417012 0.94911425 19.03830137 -1 19 C-1 17.68 -1 16.36 -1 15 C-1.66 15 -2.32 15 -3 15 C-3 17.31 -3 19.62 -3 22 C-4.32 21.34 -5.64 20.68 -7 20 C-5.07443364 13.14381674 -2.7527517 6.56747868 0 0 Z " fill="#424992" transform="translate(509,335)"/>
<path d="M0 0 C1.65 0 3.3 0 5 0 C5 15.18 5 30.36 5 46 C3.68 45.67 2.36 45.34 1 45 C1.99 45 2.98 45 4 45 C3.67 31.47 3.34 17.94 3 4 C2.34 3.67 1.68 3.34 1 3 C1 14.22 1 25.44 1 37 C0.67 37 0.34 37 0 37 C0 24.79 0 12.58 0 0 Z " fill="#393F80" transform="translate(372,325)"/>
<path d="M0 0 C0.66 0 1.32 0 2 0 C2.83739781 2.1234016 3.66980283 4.2487728 4.5 6.375 C4.9640625 7.55835938 5.428125 8.74171875 5.90625 9.9609375 C7 13 7 13 7 15 C5.02 15 3.04 15 1 15 C0.32694982 13.39850114 -0.33822227 11.79368971 -1 10.1875 C-1.37125 9.29417969 -1.7425 8.40085937 -2.125 7.48046875 C-3 5 -3 5 -3 2 C-2.01 2 -1.02 2 0 2 C0 1.34 0 0.68 0 0 Z " fill="#40478F" transform="translate(529,356)"/>
<path d="M0 0 C6.93 0 13.86 0 21 0 C21 1.32 21 2.64 21 4 C15.06 4 9.12 4 3 4 C3.66 3.67 4.32 3.34 5 3 C5 2.34 5 1.68 5 1 C3.35 1 1.7 1 0 1 C0 0.67 0 0.34 0 0 Z " fill="#373D8D" transform="translate(993,326)"/>
<path d="M0 0 C5.61 0 11.22 0 17 0 C17 1.32 17 2.64 17 4 C11.39 4 5.78 4 0 4 C0 2.68 0 1.36 0 0 Z " fill="#383D8E" transform="translate(996,346)"/>
<path d="M0 0 C15.18 0 30.36 0 46 0 C45.34 2.31 44.68 4.62 44 7 C43.67 7 43.34 7 43 7 C43 5.35 43 3.7 43 2 C28.81 1.67 14.62 1.34 0 1 C0 0.67 0 0.34 0 0 Z " fill="#384088" transform="translate(1009,43)"/>
<path d="M0 0 C1.66042444 2.49063665 2.55324168 4.25176398 3.5078125 7.01171875 C3.77207031 7.76904297 4.03632812 8.52636719 4.30859375 9.30664062 C4.57800781 10.09232422 4.84742188 10.87800781 5.125 11.6875 C5.40214844 12.48478516 5.67929687 13.28207031 5.96484375 14.10351562 C6.6470154 16.06769952 7.32401098 18.03367973 8 20 C7.34 20 6.68 20 6 20 C6 19.34 6 18.68 6 18 C4.35 18 2.7 18 1 18 C0.875 10.375 0.875 10.375 2 7 C1.34 6.67 0.68 6.34 0 6 C0 4.02 0 2.04 0 0 Z " fill="#404792" transform="translate(849,61)"/>
<path d="M0 0 C0.6875 2.0625 0.6875 2.0625 1 4 C-4.625 7 -4.625 7 -8 7 C-8 6.34 -8 5.68 -8 5 C-9.65 5.66 -11.3 6.32 -13 7 C-9.72818449 2.34395485 -5.98219124 -1.99406375 0 0 Z " fill="#414692" transform="translate(63,326)"/>
<path d="M0 0 C3.63 0 7.26 0 11 0 C11 0.33 11 0.66 11 1 C9.576875 1.3403125 9.576875 1.3403125 8.125 1.6875 C4.80676612 2.69083714 4.80676612 2.69083714 3.625 5.625 C3.41875 6.40875 3.2125 7.1925 3 8 C2.01 8 1.02 8 0 8 C-0.33 8.66 -0.66 9.32 -1 10 C-1.66 10 -2.32 10 -3 10 C-2.01 6.7 -1.02 3.4 0 0 Z " fill="#3D4491" transform="translate(994,43)"/>
<path d="M0 0 C1.74627478 2.61941217 2.38722388 4.03824877 3 7 C-0.97610786 9.71486934 -5.13901977 9.22440753 -9.75 9.125 C-10.54277344 9.11597656 -11.33554687 9.10695313 -12.15234375 9.09765625 C-14.10169281 9.07417012 -16.05088575 9.03830137 -18 9 C-17.67 8.34 -17.34 7.68 -17 7 C-10.07 7.495 -10.07 7.495 -3 8 C-3.33 6.68 -3.66 5.36 -4 4 C-2.68 4 -1.36 4 0 4 C0 2.68 0 1.36 0 0 Z " fill="#686FAA" transform="translate(526,345)"/>
<path d="M0 0 C0.33 0 0.66 0 1 0 C1.19658808 1.41543415 1.38187546 2.83244031 1.5625 4.25 C1.66691406 5.03890625 1.77132812 5.8278125 1.87890625 6.640625 C2.00027349 9.00532874 1.69633257 10.7511037 1 13 C-0.98 13.33 -2.96 13.66 -5 14 C-3.35 9.38 -1.7 4.76 0 0 Z " fill="#414793" transform="translate(660,105)"/>
<path d="M0 0 C0.33 0 0.66 0 1 0 C1 6.6 1 13.2 1 20 C0.67 20 0.34 20 0 20 C-0.33 17.36 -0.66 14.72 -1 12 C-1.66 12 -2.32 12 -3 12 C-3.33 12.66 -3.66 13.32 -4 14 C-3.00956295 9.16371695 -2.04301154 4.52381127 0 0 Z " fill="#8A85AE" transform="translate(1050,103)"/>
<path d="M0 0 C1.67542976 0.28604898 3.34385343 0.61781233 5 1 C5.625 2.875 5.625 2.875 6 5 C5.34 5.66 4.68 6.32 4 7 C1.375 6.625 1.375 6.625 -1 6 C-1.042721 4.33388095 -1.04063832 2.66617115 -1 1 C-0.67 0.67 -0.34 0.34 0 0 Z " fill="#1D1D1D" transform="translate(1208,323)"/>
<path d="M0 0 C1.67542976 0.28604898 3.34385343 0.61781233 5 1 C5 2.65 5 4.3 5 6 C2.625 6.625 2.625 6.625 0 7 C-0.66 6.34 -1.32 5.68 -2 5 C-1.46428571 1.46428571 -1.46428571 1.46428571 0 0 Z " fill="#1D1D1D" transform="translate(896,323)"/>
<path d="M0 0 C1.32 0 2.64 0 4 0 C4.33 1.98 4.66 3.96 5 6 C2.625 6.625 2.625 6.625 0 7 C-0.66 6.34 -1.32 5.68 -2 5 C-1.46428571 1.46428571 -1.46428571 1.46428571 0 0 Z " fill="#191919" transform="translate(1087,323)"/>
<path d="M0 0 C1.67542976 0.28604898 3.34385343 0.61781233 5 1 C5 2.65 5 4.3 5 6 C3.34385343 6.38218767 1.67542976 6.71395102 0 7 C-1 6 -1 6 -1.125 3.5 C-1 1 -1 1 0 0 Z " fill="#131313" transform="translate(786,323)"/>
<path d="M0 0 C2.97 0.495 2.97 0.495 6 1 C6 2.98 6 4.96 6 7 C3.69 6.34 1.38 5.68 -1 5 C-0.67 3.35 -0.34 1.7 0 0 Z " fill="#42488D" transform="translate(73,325)"/>
<path d="M0 0 C2.125 0.375 2.125 0.375 4 1 C4.625 2.875 4.625 2.875 5 5 C4.34 5.66 3.68 6.32 3 7 C0.875 6.625 0.875 6.625 -1 6 C-1.625 4.125 -1.625 4.125 -2 2 C-1.34 1.34 -0.68 0.68 0 0 Z " fill="#101010" transform="translate(672,323)"/>
<path d="M0 0 C2.125 0.375 2.125 0.375 4 1 C4.625 2.875 4.625 2.875 5 5 C4.34 5.66 3.68 6.32 3 7 C0.875 6.625 0.875 6.625 -1 6 C-1.625 4.125 -1.625 4.125 -2 2 C-1.34 1.34 -0.68 0.68 0 0 Z " fill="#111111" transform="translate(419,323)"/>
<path d="M0 0 C2 1.375 2 1.375 4 4 C4.35791096 7.3580469 4.23115823 10.63536357 4 14 C-1.2688172 6.09677419 -1.2688172 6.09677419 -0.6875 1.5625 C-0.460625 1.046875 -0.23375 0.53125 0 0 Z " fill="#3F4491" transform="translate(834,175)"/>
<path d="M0 0 C4.94117647 4.61176471 4.94117647 4.61176471 6 8 C5.125 10.25 5.125 10.25 4 12 C3.01 11.67 2.02 11.34 1 11 C0.67 7.37 0.34 3.74 0 0 Z " fill="#414697" transform="translate(473,163)"/>
<path d="M0 0 C2 3 2 3 1.625 5.6875 C1.41875 6.450625 1.2125 7.21375 1 8 C0.34 8 -0.32 8 -1 8 C-1.144375 8.5775 -1.28875 9.155 -1.4375 9.75 C-1.95833333 11.83333333 -2.47916667 13.91666667 -3 16 C-3.66 16 -4.32 16 -5 16 C-4.34309381 12.21760329 -3.279869 8.78158474 -1.9375 5.1875 C-1.57527344 4.21167969 -1.21304688 3.23585938 -0.83984375 2.23046875 C-0.42412109 1.12638672 -0.42412109 1.12638672 0 0 Z " fill="#494E93" transform="translate(668,83)"/>
<path d="M0 0 C1.3656528 3.10375636 0.93171529 4.17884091 -0.3125 7.4375 C-0.869375 8.613125 -1.42625 9.78875 -2 11 C-2.67276716 12.6642135 -3.34206835 14.32986582 -4 16 C-4.66 15.67 -5.32 15.34 -6 15 C-5.19093245 12.68624595 -4.37793083 10.37401052 -3.5625 8.0625 C-3.33240234 7.40314453 -3.10230469 6.74378906 -2.86523438 6.06445312 C-1.11328125 1.11328125 -1.11328125 1.11328125 0 0 Z " fill="#4B4F92" transform="translate(644,149)"/>
<path d="M0 0 C6.6 0 13.2 0 20 0 C20 0.33 20 0.66 20 1 C18.35451172 1.09087891 18.35451172 1.09087891 16.67578125 1.18359375 C15.22134346 1.26804498 13.76691695 1.35269066 12.3125 1.4375 C11.59126953 1.47681641 10.87003906 1.51613281 10.12695312 1.55664062 C6.33292718 1.78185678 2.71348508 2.12839305 -1 3 C-0.67 2.01 -0.34 1.02 0 0 Z " fill="#CDD4ED" transform="translate(506,358)"/>
<path d="M0 0 C0.66 0 1.32 0 2 0 C1.53680089 4.72463088 0.90108294 8.17057052 -2 12 C-2.66 12 -3.32 12 -4 12 C-3.52309796 10.37433394 -3.04340334 8.74948689 -2.5625 7.125 C-2.29566406 6.22007812 -2.02882813 5.31515625 -1.75390625 4.3828125 C-1 2 -1 2 0 0 Z " fill="#4A4F95" transform="translate(509,335)"/>
<path d="M0 0 C0.66 0 1.32 0 2 0 C4.29013653 3.4352048 4.17842973 4.985331 4 9 C2.68 8.67 1.36 8.34 0 8 C0 5.36 0 2.72 0 0 Z " fill="#353D92" transform="translate(751,336)"/>
<path d="M0 0 C0.66 0 1.32 0 2 0 C1.54554036 1.41791408 1.08625056 2.83428046 0.625 4.25 C0.36976563 5.03890625 0.11453125 5.8278125 -0.1484375 6.640625 C-0.95173667 8.86627958 -1.89711662 10.90931672 -3 13 C-3.66 12.34 -4.32 11.68 -5 11 C-4.67 10.01 -4.34 9.02 -4 8 C-3.34 8 -2.68 8 -2 8 C-1.7834375 6.576875 -1.7834375 6.576875 -1.5625 5.125 C-1 2 -1 2 0 0 Z " fill="#444B90" transform="translate(961,291)"/>
<path d="M0 0 C0.66 0 1.32 0 2 0 C1.44894091 3.9492568 0.61064629 7.34920174 -1 11 C-1.66 10.34 -2.32 9.68 -3 9 C-2.625 6.375 -2.625 6.375 -2 4 C-1.34 4 -0.68 4 0 4 C0 2.68 0 1.36 0 0 Z " fill="#41468F" transform="translate(1037,84)"/>
<path d="M0 0 C1.98 0 3.96 0 6 0 C6 1.32 6 2.64 6 4 C3.69 4 1.38 4 -1 4 C-0.67 2.68 -0.34 1.36 0 0 Z " fill="#363E8E" transform="translate(64,368)"/>
<path d="M0 0 C1.98 0 3.96 0 6 0 C6 1.98 6 3.96 6 6 C5.34 4.68 4.68 3.36 4 2 C2.68 2.33 1.36 2.66 0 3 C0 2.01 0 1.02 0 0 Z M4 6 C4.66 7.32 5.32 8.64 6 10 C5.01 10.495 5.01 10.495 4 11 C4 9.35 4 7.7 4 6 Z " fill="#3B4286" transform="translate(513,325)"/>
<path d="M0 0 C0.66 0.66 1.32 1.32 2 2 C1.68031589 5.94277072 0.28521123 8.80070428 -2 12 C-2.66 12 -3.32 12 -4 12 C-2.66666667 8 -1.33333333 4 0 0 Z " fill="#4C5097" transform="translate(635,172)"/>
<path d="M0 0 C3.63 0 7.26 0 11 0 C10.34 2.31 9.68 4.62 9 7 C8.67 7 8.34 7 8 7 C8 5.35 8 3.7 8 2 C5.03 2 2.06 2 -1 2 C-0.67 1.34 -0.34 0.68 0 0 Z " fill="#40468B" transform="translate(1044,43)"/>
<path d="M0 0 C0.99 0.99 1.98 1.98 3 3 C2.34 5.31 1.68 7.62 1 10 C-0.32 8.35 -1.64 6.7 -3 5 C-2.34 4.34 -1.68 3.68 -1 3 C-0.67 2.01 -0.34 1.02 0 0 Z " fill="#4A4F98" transform="translate(365,354)"/>
<path d="M0 0 C0.99 0.33 1.98 0.66 3 1 C2.125 5.75 2.125 5.75 1 8 C0.34 8 -0.32 8 -1 8 C-1.04241723 5.66705225 -1.04092937 3.33297433 -1 1 C-0.67 0.67 -0.34 0.34 0 0 Z " fill="#3A438F" transform="translate(758,353)"/>
<path d="M0 0 C2 3.75 2 3.75 2 6 C1.01 6 0.02 6 -1 6 C-1 5.34 -1 4.68 -1 4 C-2.65 4.66 -4.3 5.32 -6 6 C-2.25 1.125 -2.25 1.125 0 0 Z " fill="#485095" transform="translate(56,327)"/>
<path d="M0 0 C0.99 0 1.98 0 3 0 C3.66 2.31 4.32 4.62 5 7 C4.01 7.33 3.02 7.66 2 8 C2 6.68 2 5.36 2 4 C1.34 4 0.68 4 0 4 C0 2.68 0 1.36 0 0 Z " fill="#363D94" transform="translate(747,327)"/>
<path d="M0 0 C1.79068573 2.6860286 2.66055791 4.6626589 3.625 7.6875 C3.88539063 8.49574219 4.14578125 9.30398437 4.4140625 10.13671875 C4.60742188 10.75160156 4.80078125 11.36648437 5 12 C4.34 12.66 3.68 13.32 3 14 C-0.44419134 4.58997722 -0.44419134 4.58997722 0 0 Z " fill="#4D5194" transform="translate(904,206)"/>
<path d="M0 0 C1.65 0 3.3 0 5 0 C4.979375 0.7425 4.95875 1.485 4.9375 2.25 C4.99328688 4.70462279 5.3069904 6.66109261 6 9 C3.59927045 6.11912454 1.52708963 3.43595166 0 0 Z " fill="#42498F" transform="translate(426,189)"/>
<path d="M0 0 C0.99 0 1.98 0 3 0 C3.66 1.98 4.32 3.96 5 6 C3.35 6 1.7 6 0 6 C0 4.02 0 2.04 0 0 Z " fill="#3D4393" transform="translate(770,70)"/>
<path d="M0 0 C3.57104439 1.87949705 5.54744301 3.17053157 7 7 C3.5625 5.6875 3.5625 5.6875 0 4 C-0.33 3.01 -0.66 2.02 -1 1 C-0.67 0.67 -0.34 0.34 0 0 Z " fill="#373E8C" transform="translate(51,360)"/>
<path d="M0 0 C0.66 0.33 1.32 0.66 2 1 C2 3.64 2 6.28 2 9 C1.34 9 0.68 9 0 9 C-0.66 6.69 -1.32 4.38 -2 2 C-1.34 2 -0.68 2 0 2 C0 1.34 0 0.68 0 0 Z " fill="#414795" transform="translate(852,220)"/>
<path d="M0 0 C0 1.65 0 3.3 0 5 C-1.65 5 -3.3 5 -5 5 C-4.625 3.0625 -4.625 3.0625 -4 1 C-2 0 -2 0 0 0 Z " fill="#393E8B" transform="translate(501,366)"/>
<path d="M0 0 C0.66 0.33 1.32 0.66 2 1 C-0.64 3.97 -3.28 6.94 -6 10 C-6.33 9.34 -6.66 8.68 -7 8 C-3.375 2.25 -3.375 2.25 0 0 Z " fill="#E7ECF9" transform="translate(59,331)"/>
<path d="M0 0 C0.66 0 1.32 0 2 0 C1.01 3.3 0.02 6.6 -1 10 C-1.33 10 -1.66 10 -2 10 C-2.25 3.375 -2.25 3.375 0 0 Z " fill="#8B87AD" transform="translate(593,233)"/>
<path d="M0 0 C0.66 0.33 1.32 0.66 2 1 C1.01 3.97 0.02 6.94 -1 10 C-1.66 10 -2.32 10 -3 10 C-2.01 6.7 -1.02 3.4 0 0 Z " fill="#43488E" transform="translate(621,210)"/>
<path d="M0 0 C0.66 0.99 1.32 1.98 2 3 C1.5390625 5.04296875 1.5390625 5.04296875 0.625 7.1875 C0.32851563 7.90292969 0.03203125 8.61835938 -0.2734375 9.35546875 C-0.51320313 9.89816406 -0.75296875 10.44085938 -1 11 C-1.99 10.67 -2.98 10.34 -4 10 C-3.67 9.01 -3.34 8.02 -3 7 C-2.34 7 -1.68 7 -1 7 C-0.67 4.69 -0.34 2.38 0 0 Z " fill="#8A84B4" transform="translate(616,170)"/>
<path d="M0 0 C1.32 0.33 2.64 0.66 4 1 C4.33 3.64 4.66 6.28 5 9 C4.34 9 3.68 9 3 9 C2.01 6.03 1.02 3.06 0 0 Z " fill="#42478D" transform="translate(815,130)"/>
<path d="M0 0 C1.98 0 3.96 0 6 0 C6.33 1.32 6.66 2.64 7 4 C6.67 3.34 6.34 2.68 6 2 C5.01 2 4.02 2 3 2 C2.67 3.32 2.34 4.64 2 6 C1.34 4.02 0.68 2.04 0 0 Z " fill="#454783" transform="translate(744,325)"/>
<path d="M0 0 C1.0326802 2.78823655 1.04509293 3.8677274 0.0625 6.75 C-0.288125 7.4925 -0.63875 8.235 -1 9 C-1.66 9 -2.32 9 -3 9 C-2.69181644 7.68647977 -2.37832335 6.37420428 -2.0625 5.0625 C-1.88847656 4.33160156 -1.71445312 3.60070312 -1.53515625 2.84765625 C-1 1 -1 1 0 0 Z " fill="#4B5193" transform="translate(607,249)"/>
<path d="M0 0 C0.99 0 1.98 0 3 0 C4.75 2.25 4.75 2.25 6 5 C5.67 6.32 5.34 7.64 5 9 C3.35 6.03 1.7 3.06 0 0 Z " fill="#44498C" transform="translate(458,236)"/>
<path d="M0 0 C0.66 0.66 1.32 1.32 2 2 C1.60495559 4.9628331 0.40182371 7.38326241 -1 10 C-1.66 10 -2.32 10 -3 10 C-2.01 6.7 -1.02 3.4 0 0 Z " fill="#4C5294" transform="translate(961,132)"/>
<path d="M0 0 C3.29148243 1.13499394 3.9959869 1.99283376 5.75 5.125 C6.1625 6.07375 6.575 7.0225 7 8 C6.34 8 5.68 8 5 8 C4.67 7.34 4.34 6.68 4 6 C3.01 5.67 2.02 5.34 1 5 C0.67 3.35 0.34 1.7 0 0 Z " fill="#454A8D" transform="translate(417,83)"/>
<path d="M0 0 C0.66 0.33 1.32 0.66 2 1 C2 2.32 2 3.64 2 5 C1.01 5.33 0.02 5.66 -1 6 C-1.66 5.01 -2.32 4.02 -3 3 C-2.01 2.01 -1.02 1.02 0 0 Z " fill="#363F8E" transform="translate(778,332)"/>
<path d="M0 0 C0.33 0 0.66 0 1 0 C1.6875 2.8125 1.6875 2.8125 2 6 C0.5625 7.875 0.5625 7.875 -1 9 C-1.66 8.67 -2.32 8.34 -3 8 C-2.01 5.36 -1.02 2.72 0 0 Z " fill="#8C87B7" transform="translate(1010,211)"/>
<path d="M0 0 C0.99 0.33 1.98 0.66 3 1 C2.75 2.875 2.75 2.875 2 5 C-0.0625 6.25 -0.0625 6.25 -2 7 C-1.34 4.69 -0.68 2.38 0 0 Z " fill="#8D86BA" transform="translate(1025,170)"/>
<path d="M0 0 C0.66 0.66 1.32 1.32 2 2 C2.99 2.33 3.98 2.66 5 3 C4.67 3.99 4.34 4.98 4 6 C3.34 6 2.68 6 2 6 C2 5.34 2 4.68 2 4 C0.68 4 -0.64 4 -2 4 C-1.34 2.68 -0.68 1.36 0 0 Z " fill="#474E93" transform="translate(765,361)"/>
<path d="M0 0 C0.125 2.875 0.125 2.875 0 6 C-0.66 6.66 -1.32 7.32 -2 8 C-3.0625 6.1875 -3.0625 6.1875 -4 4 C-3.67 3.01 -3.34 2.02 -3 1 C-1 0 -1 0 0 0 Z " fill="#37418B" transform="translate(777,339)"/>
<path d="M0 0 C0.93065133 2.60582371 1.14917407 3.64198224 0.0625 6.25 C-0.4634375 7.11625 -0.4634375 7.11625 -1 8 C-1.66 8 -2.32 8 -3 8 C-1.125 1.125 -1.125 1.125 0 0 Z " fill="#8B87B6" transform="translate(1038,137)"/>
<path d="M0 0 C0.82810826 3.31243305 1.09278428 5.65976579 1 9 C-0.32 9.33 -1.64 9.66 -3 10 C-2.01 6.7 -1.02 3.4 0 0 Z " fill="#4E5295" transform="translate(965,121)"/>
<path d="M0 0 C0.66 0 1.32 0 2 0 C2.33 0.99 2.66 1.98 3 3 C2.34 3 1.68 3 1 3 C1 4.32 1 5.64 1 7 C0.01 7 -0.98 7 -2 7 C-1.34 4.69 -0.68 2.38 0 0 Z " fill="#464E8F" transform="translate(682,45)"/>
</svg>
